<svg width="247" height="101" viewBox="0 0 247 101" fill="none" xmlns="http://www.w3.org/2000/svg">
<g clip-path="url(#clip0_574_1547)">
<g filter="url(#filter0_i_574_1547)">
<g clip-path="url(#clip1_574_1547)">
<rect x="94.2188" width="58" height="58" rx="15.95" fill="url(#paint0_linear_574_1547)"/>
<g filter="url(#filter1_i_574_1547)">
<g clip-path="url(#clip2_574_1547)">
<rect x="94.2188" width="58" height="58" rx="16.7308" fill="url(#paint1_linear_574_1547)"/>
<rect x="94.2188" width="58" height="58" rx="16.7308" fill="url(#paint2_linear_574_1547)"/>
<path d="M129.815 19.6805C129.646 19.2392 129.099 18.8331 128.22 18.5053C129.11 18.8331 129.656 19.2493 129.815 19.6805Z" fill="#9A2F00"/>
<path d="M130.373 19.1229C130.205 18.6816 129.658 18.2755 128.779 17.9477C129.668 18.2755 130.215 18.6917 130.373 19.1229Z" fill="#9A2F00"/>
<g filter="url(#filter2_i_574_1547)">
<path fill-rule="evenodd" clip-rule="evenodd" d="M140.995 16.5382C140.225 16.0235 139.319 15.7488 138.393 15.7488C137.778 15.7482 137.169 15.8688 136.601 16.1037C136.033 16.3386 135.517 16.6832 135.082 17.1177C134.647 17.5522 134.302 18.0682 134.066 18.6361C133.831 19.204 133.71 19.8127 133.71 20.4275C133.709 21.3538 133.983 22.2596 134.497 23.0302C135.011 23.8008 135.742 24.4017 136.598 24.7567C137.453 25.1118 138.395 25.2051 139.304 25.0249C140.212 24.8447 141.047 24.399 141.703 23.7442C142.358 23.0895 142.804 22.2551 142.985 21.3466C143.166 20.4381 143.074 19.4964 142.719 18.6405C142.365 17.7846 141.765 17.053 140.995 16.5382ZM117.686 29.2772C117.07 28.8654 116.346 28.6456 115.605 28.6456C114.612 28.6456 113.659 29.0397 112.957 29.7414C112.255 30.4431 111.859 31.395 111.858 32.3879C111.858 33.129 112.077 33.8537 112.488 34.4703C112.899 35.0869 113.484 35.5676 114.168 35.8518C114.853 36.1359 115.606 36.2107 116.333 36.0666C117.06 35.9225 117.728 35.566 118.252 35.0422C118.777 34.5185 119.134 33.8509 119.279 33.1241C119.423 32.3973 119.35 31.6439 119.066 30.9591C118.783 30.2744 118.303 29.689 117.686 29.2772ZM106.662 57.4759C102.947 51.38 100.121 36.1745 99.4742 32.1765C99.2534 30.83 98.9645 29.6272 98.7103 28.5692C97.9971 25.6004 97.5576 23.7712 99.6673 23.1056C101.418 22.5536 102.911 24.9422 104.996 28.2799C106.564 30.7903 108.467 33.8376 111.069 36.5743C114.675 40.3772 118.945 40.6899 122.332 40.9379C125.071 41.1385 127.233 41.2969 128 43.2248C128.524 44.5183 126.705 45.7372 124.603 47.1457C123.1 48.1529 121.452 49.257 120.413 50.5546C116.546 55.3975 116.694 58.5774 116.899 62.9969L116.899 62.9972C116.908 63.199 116.917 63.4033 116.927 63.6105L106.662 57.4759ZM138.826 57.0493C138.822 58.7082 138.818 60.3797 139.182 61.9524L146.36 56.043C149.927 52.4542 152.674 48.1413 154.332 43.5C156.436 37.4806 156.828 30.4332 156.497 24.0888C156.488 23.8764 156.485 23.6336 156.482 23.37C156.461 21.6794 156.43 19.1375 154.883 18.3389C153.797 17.7739 152.099 19.9522 151.652 20.5259C148.912 23.9076 145.792 27.1211 141.372 28.4152C136.964 29.7031 132.46 29.2918 127.967 28.8816C127.599 28.848 127.231 28.8145 126.864 28.7818C125.331 28.6524 122.573 28.4368 122.251 30.4857C121.983 32.2283 123.646 34.0658 124.933 35.0536C125.896 35.7868 126.982 36.3309 128.069 36.8759C128.772 37.2286 129.476 37.5817 130.149 37.9868C131.806 39.0564 133.25 40.405 134.413 41.9681C137.059 45.3412 138.373 49.7108 138.735 53.8819C138.831 54.9125 138.829 55.9783 138.826 57.0493Z" fill="url(#paint3_linear_574_1547)"/>
</g>
</g>
</g>
</g>
</g>
<path d="M3.95683 85.6229V85.4063C3.95683 84.6512 4.10119 83.9406 4.3899 83.2743C4.67862 82.608 5.06727 82.0306 5.55587 81.542C6.05557 81.0423 6.633 80.6481 7.28817 80.3594C7.95443 80.0706 8.66512 79.9263 9.42022 79.9263C10.2197 79.9263 10.9582 80.0873 11.6356 80.4093C12.324 80.7203 12.9237 81.1478 13.4345 81.6919C13.9342 81.1478 14.5227 80.7203 15.2001 80.4093C15.8886 80.0873 16.6326 79.9263 17.4321 79.9263C18.1872 79.9263 18.9034 80.0706 19.5808 80.3594C20.2582 80.6481 20.8467 81.0423 21.3464 81.542C21.8572 82.0306 22.2625 82.608 22.5624 83.2743C22.8622 83.9406 23.0121 84.6512 23.0121 85.4063V94.5342C23.0121 94.9562 22.8677 95.306 22.579 95.5836C22.2903 95.8612 21.9461 96 21.5463 96C21.1354 96 20.7856 95.8612 20.4969 95.5836C20.2193 95.306 20.0805 94.9562 20.0805 94.5342V85.5729C20.0805 85.2176 20.0083 84.8844 19.864 84.5735C19.7307 84.2515 19.5419 83.9739 19.2976 83.7407C19.0644 83.4964 18.7868 83.3076 18.4648 83.1743C18.1428 83.03 17.8041 82.9578 17.4487 82.9578C17.1156 82.9578 16.7991 83.0189 16.4993 83.141C16.2106 83.2632 15.9496 83.4353 15.7165 83.6574C15.4944 83.8684 15.3111 84.1182 15.1668 84.4069C15.0335 84.6957 14.9558 85.001 14.9336 85.3231C14.9447 85.3564 14.9502 85.423 14.9502 85.5229V88.9209C14.9502 89.1319 14.9114 89.3262 14.8336 89.5039C14.7559 89.6816 14.6504 89.837 14.5172 89.9703C14.3839 90.1035 14.2285 90.209 14.0508 90.2868C13.8731 90.3645 13.6843 90.4034 13.4845 90.4034C13.0736 90.4034 12.7238 90.2645 12.4351 89.9869C12.1575 89.6982 12.0187 89.3429 12.0187 88.9209V85.5896C12.0187 85.2231 11.952 84.8844 11.8188 84.5735C11.6855 84.2515 11.5023 83.9683 11.2691 83.724C11.047 83.4797 10.7805 83.2909 10.4696 83.1577C10.1587 83.0133 9.82554 82.9412 9.47019 82.9412C9.13706 82.9412 8.82613 83.0022 8.53742 83.1244C8.2487 83.2354 7.98775 83.3909 7.75455 83.5908C7.53246 83.7906 7.34369 84.0294 7.18823 84.307C7.04387 84.5735 6.94948 84.8622 6.90506 85.1731C6.91617 85.2287 6.92172 85.2786 6.92172 85.3231C6.93282 85.3564 6.93838 85.4008 6.93838 85.4563L6.88841 94.5342C6.88841 94.9562 6.74405 95.306 6.45533 95.5836C6.16662 95.8612 5.82793 96 5.43927 96C5.02841 96 4.67862 95.8612 4.3899 95.5836C4.10119 95.306 3.95683 94.9562 3.95683 94.5342V85.6229ZM25.8604 76.2951C25.8604 76.0619 25.9048 75.8454 25.9936 75.6455C26.0825 75.4456 26.1991 75.2735 26.3434 75.1292C26.4989 74.9737 26.6766 74.8516 26.8764 74.7627C27.0874 74.6739 27.3095 74.6295 27.5427 74.6295C27.7759 74.6295 27.9924 74.6739 28.1923 74.7627C28.3922 74.8516 28.5699 74.9737 28.7253 75.1292C28.8808 75.2735 29.0029 75.4456 29.0918 75.6455C29.1806 75.8454 29.225 76.0619 29.225 76.2951C29.225 76.5283 29.1806 76.7449 29.0918 76.9447C29.0029 77.1446 28.8808 77.3223 28.7253 77.4778C28.5699 77.6221 28.3922 77.7387 28.1923 77.8275C27.9924 77.9164 27.7759 77.9608 27.5427 77.9608C27.3095 77.9608 27.0874 77.9164 26.8764 77.8275C26.6766 77.7387 26.4989 77.6221 26.3434 77.4778C26.1991 77.3223 26.0825 77.1446 25.9936 76.9447C25.9048 76.7449 25.8604 76.5283 25.8604 76.2951ZM26.0436 81.4087C26.0436 81.2089 26.0825 81.0201 26.1602 80.8424C26.2379 80.6536 26.3434 80.4926 26.4767 80.3594C26.621 80.2261 26.782 80.1206 26.9597 80.0429C27.1485 79.9652 27.3484 79.9263 27.5594 79.9263C27.9702 79.9263 28.3089 80.0706 28.5754 80.3594C28.853 80.6481 28.9918 80.9979 28.9918 81.4087V94.6508C28.9918 95.0617 28.8475 95.4115 28.5588 95.7002C28.2812 95.9778 27.9425 96.1166 27.5427 96.1166C27.1318 96.1166 26.7765 95.9778 26.4767 95.7002C26.188 95.4115 26.0436 95.0617 26.0436 94.6508V81.4087ZM32.7729 75.6455C32.7729 75.2236 32.9117 74.8738 33.1893 74.5961C33.4669 74.3074 33.8056 74.1631 34.2054 74.1631C34.4053 74.1631 34.594 74.2019 34.7717 74.2797C34.9605 74.3463 35.1215 74.4462 35.2548 74.5795C35.3991 74.7127 35.5102 74.8738 35.5879 75.0625C35.6767 75.2402 35.7211 75.4345 35.7211 75.6455V90.4367C35.7211 91.3028 35.9488 91.9691 36.4041 92.4355C36.8705 92.8908 37.509 93.1184 38.3196 93.1184C38.7416 93.1184 39.0858 93.2628 39.3523 93.5515C39.6299 93.8291 39.7687 94.1678 39.7687 94.5675C39.7687 94.9895 39.6355 95.3393 39.369 95.6169C39.1024 95.8834 38.7582 96.0167 38.3362 96.0167C37.5478 96.0167 36.8149 95.8834 36.1376 95.6169C35.4602 95.3504 34.8716 94.9728 34.3719 94.4842C33.8722 93.9845 33.478 93.396 33.1893 92.7186C32.9117 92.0302 32.7729 91.2695 32.7729 90.4367V75.6455ZM42.1673 75.6455C42.1673 75.2236 42.3061 74.8738 42.5837 74.5961C42.8613 74.3074 43.2 74.1631 43.5998 74.1631C43.7996 74.1631 43.9884 74.2019 44.1661 74.2797C44.3549 74.3463 44.5159 74.4462 44.6491 74.5795C44.7935 74.7127 44.9045 74.8738 44.9823 75.0625C45.0711 75.2402 45.1155 75.4345 45.1155 75.6455V90.4367C45.1155 91.3028 45.3432 91.9691 45.7984 92.4355C46.2648 92.8908 46.9033 93.1184 47.714 93.1184C48.1359 93.1184 48.4802 93.2628 48.7467 93.5515C49.0243 93.8291 49.1631 94.1678 49.1631 94.5675C49.1631 94.9895 49.0298 95.3393 48.7633 95.6169C48.4968 95.8834 48.1526 96.0167 47.7306 96.0167C46.9422 96.0167 46.2093 95.8834 45.5319 95.6169C44.8546 95.3504 44.266 94.9728 43.7663 94.4842C43.2666 93.9845 42.8724 93.396 42.5837 92.7186C42.3061 92.0302 42.1673 91.2695 42.1673 90.4367V75.6455ZM53.5271 89.4039C53.6493 89.9703 53.8603 90.4977 54.1601 90.9863C54.4599 91.4638 54.8264 91.8802 55.2594 92.2356C55.6925 92.5909 56.1756 92.8685 56.7086 93.0684C57.2527 93.2683 57.8246 93.3682 58.4242 93.3682C59.0016 93.3682 59.4791 93.3183 59.8567 93.2183C60.2342 93.1073 60.6118 92.9407 60.9893 92.7186C61.3003 92.541 61.5945 92.4521 61.8722 92.4521C62.072 92.4521 62.2553 92.4965 62.4218 92.5854C62.5995 92.6631 62.755 92.7742 62.8882 92.9185C63.0215 93.0518 63.127 93.2128 63.2047 93.4016C63.2824 93.5903 63.3213 93.7847 63.3213 93.9845C63.3213 94.3399 63.188 94.6564 62.9215 94.934C62.655 95.2005 62.2941 95.4281 61.8388 95.6169C61.3947 95.8057 60.8727 95.95 60.2731 96.05C59.6846 96.1499 59.0683 96.1999 58.4242 96.1999C57.3027 96.1999 56.2422 95.9889 55.2428 95.5669C54.2545 95.1339 53.3883 94.5509 52.6443 93.818C51.9114 93.0851 51.3285 92.2245 50.8954 91.2362C50.4734 90.2479 50.2624 89.193 50.2624 88.0714C50.2624 86.9388 50.4734 85.8783 50.8954 84.89C51.3285 83.9017 51.9114 83.0411 52.6443 82.3082C53.3883 81.5753 54.2545 80.9979 55.2428 80.5759C56.2422 80.1428 57.3027 79.9263 58.4242 79.9263C59.5347 79.9263 60.584 80.1373 61.5723 80.5592C62.5606 80.9812 63.4212 81.5586 64.1541 82.2915C64.8981 83.0244 65.4867 83.885 65.9197 84.8733C66.3528 85.8505 66.5749 86.8943 66.586 88.0048C66.586 88.4045 66.4527 88.7377 66.1862 89.0042C65.9197 89.2707 65.5755 89.4039 65.1535 89.4039H53.5271ZM63.5711 86.9388C63.4712 86.3391 63.2658 85.7839 62.9548 85.2731C62.655 84.7623 62.2775 84.3181 61.8222 83.9406C61.378 83.563 60.8672 83.2687 60.2898 83.0577C59.7234 82.8468 59.1182 82.7413 58.4742 82.7413C57.819 82.7413 57.2083 82.8523 56.6419 83.0744C56.0756 83.2854 55.5704 83.5852 55.1262 83.9739C54.682 84.3514 54.3156 84.7956 54.0268 85.3064C53.7381 85.8172 53.5438 86.3613 53.4439 86.9388H63.5711ZM68.4682 87.8382V87.7716C68.4682 86.6945 68.6625 85.6784 69.0512 84.7234C69.4509 83.7684 69.9951 82.9356 70.6835 82.2249C71.372 81.5142 72.1826 80.9535 73.1154 80.5426C74.0482 80.1317 75.0531 79.9263 76.1303 79.9263C77.2185 79.9263 78.229 80.1317 79.1618 80.5426C80.1057 80.9535 80.9219 81.5142 81.6103 82.2249C82.3099 82.9356 82.854 83.7684 83.2427 84.7234C83.6424 85.6784 83.8423 86.6945 83.8423 87.7716V87.8549V94.5509C83.8423 94.9728 83.7035 95.3226 83.4259 95.6002C83.1483 95.8667 82.8041 96 82.3932 96C81.9823 96 81.6325 95.8667 81.3438 95.6002C81.0551 95.3226 80.9107 94.9728 80.9107 94.5509V87.8382V87.8049C80.8996 87.1275 80.7719 86.4946 80.5276 85.906C80.2833 85.3064 79.9447 84.7845 79.5116 84.3403C79.0896 83.8961 78.5899 83.5463 78.0125 83.2909C77.4351 83.0244 76.8076 82.8912 76.1303 82.8912C75.4529 82.8912 74.8255 83.0189 74.2481 83.2743C73.6817 83.5186 73.1876 83.8628 72.7656 84.307C72.3437 84.7512 72.0105 85.2731 71.7662 85.8727C71.533 86.4613 71.4164 87.0942 71.4164 87.7716V94.5509C71.4164 94.9728 71.2776 95.3226 71 95.6002C70.7335 95.8667 70.3948 96 69.984 96C69.7841 96 69.5897 95.9667 69.401 95.9001C69.2233 95.8223 69.0623 95.7224 68.9179 95.6002C68.7847 95.467 68.6736 95.3115 68.5848 95.1339C68.5071 94.9562 68.4682 94.7619 68.4682 94.5509V87.8382ZM86.5907 87.8382V87.7716C86.5907 86.6945 86.785 85.6784 87.1737 84.7234C87.5734 83.7684 88.1175 82.9356 88.806 82.2249C89.4945 81.5142 90.3051 80.9535 91.2379 80.5426C92.1707 80.1317 93.1756 79.9263 94.2528 79.9263C95.341 79.9263 96.3515 80.1317 97.2843 80.5426C98.2282 80.9535 99.0443 81.5142 99.7328 82.2249C100.432 82.9356 100.977 83.7684 101.365 84.7234C101.765 85.6784 101.965 86.6945 101.965 87.7716V87.8549V94.5509C101.965 94.9728 101.826 95.3226 101.548 95.6002C101.271 95.8667 100.927 96 100.516 96C100.105 96 99.755 95.8667 99.4663 95.6002C99.1776 95.3226 99.0332 94.9728 99.0332 94.5509V87.8382V87.8049C99.0221 87.1275 98.8944 86.4946 98.6501 85.906C98.4058 85.3064 98.0671 84.7845 97.6341 84.3403C97.2121 83.8961 96.7124 83.5463 96.135 83.2909C95.5575 83.0244 94.9301 82.8912 94.2528 82.8912C93.5754 82.8912 92.948 83.0189 92.3706 83.2743C91.8042 83.5186 91.3101 83.8628 90.8881 84.307C90.4661 84.7512 90.133 85.2731 89.8887 85.8727C89.6555 86.4613 89.5389 87.0942 89.5389 87.7716V94.5509C89.5389 94.9728 89.4001 95.3226 89.1225 95.6002C88.856 95.8667 88.5173 96 88.1064 96C87.9066 96 87.7122 95.9667 87.5235 95.9001C87.3458 95.8223 87.1848 95.7224 87.0404 95.6002C86.9072 95.467 86.7961 95.3115 86.7073 95.1339C86.6295 94.9562 86.5907 94.7619 86.5907 94.5509V87.8382ZM105.08 76.2951C105.08 76.0619 105.124 75.8454 105.213 75.6455C105.302 75.4456 105.418 75.2735 105.563 75.1292C105.718 74.9737 105.896 74.8516 106.096 74.7627C106.307 74.6739 106.529 74.6295 106.762 74.6295C106.995 74.6295 107.212 74.6739 107.412 74.7627C107.611 74.8516 107.789 74.9737 107.945 75.1292C108.1 75.2735 108.222 75.4456 108.311 75.6455C108.4 75.8454 108.444 76.0619 108.444 76.2951C108.444 76.5283 108.4 76.7449 108.311 76.9447C108.222 77.1446 108.1 77.3223 107.945 77.4778C107.789 77.6221 107.611 77.7387 107.412 77.8275C107.212 77.9164 106.995 77.9608 106.762 77.9608C106.529 77.9608 106.307 77.9164 106.096 77.8275C105.896 77.7387 105.718 77.6221 105.563 77.4778C105.418 77.3223 105.302 77.1446 105.213 76.9447C105.124 76.7449 105.08 76.5283 105.08 76.2951ZM105.263 81.4087C105.263 81.2089 105.302 81.0201 105.379 80.8424C105.457 80.6536 105.563 80.4926 105.696 80.3594C105.84 80.2261 106.001 80.1206 106.179 80.0429C106.368 79.9652 106.568 79.9263 106.779 79.9263C107.189 79.9263 107.528 80.0706 107.795 80.3594C108.072 80.6481 108.211 80.9979 108.211 81.4087V94.6508C108.211 95.0617 108.067 95.4115 107.778 95.7002C107.5 95.9778 107.162 96.1166 106.762 96.1166C106.351 96.1166 105.996 95.9778 105.696 95.7002C105.407 95.4115 105.263 95.0617 105.263 94.6508V81.4087ZM111.442 81.3921C111.442 80.9812 111.581 80.637 111.859 80.3594C112.148 80.0706 112.497 79.9263 112.908 79.9263C113.308 79.9263 113.652 80.0706 113.941 80.3594C114.23 80.637 114.374 80.9812 114.374 81.3921V88.4545C114.385 89.1208 114.513 89.7482 114.757 90.3367C115.013 90.9142 115.351 91.4194 115.773 91.8525C116.206 92.2856 116.712 92.6298 117.289 92.8852C117.866 93.1295 118.494 93.2516 119.171 93.2516C119.849 93.2516 120.459 93.1239 121.003 92.8685C121.559 92.6131 122.031 92.2633 122.419 91.8192C122.808 91.375 123.108 90.8586 123.319 90.2701C123.541 89.6705 123.652 89.032 123.652 88.3546V81.3921C123.652 81.1922 123.691 81.0034 123.768 80.8258C123.857 80.6481 123.968 80.4926 124.102 80.3594C124.235 80.2261 124.39 80.1206 124.568 80.0429C124.757 79.9652 124.951 79.9263 125.151 79.9263C125.573 79.9263 125.917 80.0706 126.184 80.3594C126.461 80.637 126.6 80.9812 126.6 81.3921V88.288V88.3712C126.6 89.4484 126.411 90.4644 126.034 91.4194C125.667 92.3633 125.156 93.1906 124.501 93.9013C123.846 94.6119 123.063 95.1727 122.153 95.5836C121.242 95.9944 120.248 96.1999 119.171 96.1999C118.083 96.1999 117.067 95.9944 116.123 95.5836C115.19 95.1727 114.374 94.6119 113.674 93.9013C112.986 93.1906 112.442 92.3633 112.042 91.4194C111.642 90.4644 111.442 89.4484 111.442 88.3712V81.3921ZM129.648 85.6229V85.4063C129.648 84.6512 129.793 83.9406 130.081 83.2743C130.37 82.608 130.759 82.0306 131.247 81.542C131.747 81.0423 132.324 80.6481 132.98 80.3594C133.646 80.0706 134.357 79.9263 135.112 79.9263C135.911 79.9263 136.65 80.0873 137.327 80.4093C138.015 80.7203 138.615 81.1478 139.126 81.6919C139.626 81.1478 140.214 80.7203 140.892 80.4093C141.58 80.0873 142.324 79.9263 143.123 79.9263C143.879 79.9263 144.595 80.0706 145.272 80.3594C145.95 80.6481 146.538 81.0423 147.038 81.542C147.549 82.0306 147.954 82.608 148.254 83.2743C148.554 83.9406 148.703 84.6512 148.703 85.4063V94.5342C148.703 94.9562 148.559 95.306 148.27 95.5836C147.982 95.8612 147.637 96 147.238 96C146.827 96 146.477 95.8612 146.188 95.5836C145.911 95.306 145.772 94.9562 145.772 94.5342V85.5729C145.772 85.2176 145.7 84.8844 145.555 84.5735C145.422 84.2515 145.233 83.9739 144.989 83.7407C144.756 83.4964 144.478 83.3076 144.156 83.1743C143.834 83.03 143.495 82.9578 143.14 82.9578C142.807 82.9578 142.491 83.0189 142.191 83.141C141.902 83.2632 141.641 83.4353 141.408 83.6574C141.186 83.8684 141.003 84.1182 140.858 84.4069C140.725 84.6957 140.647 85.001 140.625 85.3231C140.636 85.3564 140.642 85.423 140.642 85.5229V88.9209C140.642 89.1319 140.603 89.3262 140.525 89.5039C140.447 89.6816 140.342 89.837 140.209 89.9703C140.075 90.1035 139.92 90.209 139.742 90.2868C139.565 90.3645 139.376 90.4034 139.176 90.4034C138.765 90.4034 138.415 90.2645 138.126 89.9869C137.849 89.6982 137.71 89.3429 137.71 88.9209V85.5896C137.71 85.2231 137.643 84.8844 137.51 84.5735C137.377 84.2515 137.194 83.9683 136.961 83.724C136.738 83.4797 136.472 83.2909 136.161 83.1577C135.85 83.0133 135.517 82.9412 135.162 82.9412C134.828 82.9412 134.518 83.0022 134.229 83.1244C133.94 83.2354 133.679 83.3909 133.446 83.5908C133.224 83.7906 133.035 84.0294 132.88 84.307C132.735 84.5735 132.641 84.8622 132.596 85.1731C132.608 85.2287 132.613 85.2786 132.613 85.3231C132.624 85.3564 132.63 85.4008 132.63 85.4563L132.58 94.5342C132.58 94.9562 132.435 95.306 132.147 95.5836C131.858 95.8612 131.519 96 131.131 96C130.72 96 130.37 95.8612 130.081 95.5836C129.793 95.306 129.648 94.9562 129.648 94.5342V85.6229ZM159.564 100.914C159.364 100.914 159.175 100.875 158.997 100.797C158.82 100.719 158.664 100.614 158.531 100.481C158.398 100.347 158.292 100.186 158.214 99.9976C158.137 99.8199 158.098 99.6256 158.098 99.4146C158.098 99.2147 158.137 99.026 158.214 98.8483C158.292 98.6817 158.398 98.5318 158.531 98.3986C158.664 98.2653 158.82 98.1598 158.997 98.0821C159.175 98.0044 159.364 97.9655 159.564 97.9655H159.614C159.947 97.9544 160.252 97.8822 160.53 97.749C160.807 97.6157 161.046 97.438 161.246 97.2159C161.457 97.005 161.618 96.7551 161.729 96.4664C161.851 96.1888 161.912 95.889 161.912 95.5669V87.4551H160.713C160.502 87.4551 160.302 87.4163 160.113 87.3385C159.936 87.2608 159.78 87.1553 159.647 87.022C159.514 86.8888 159.408 86.7333 159.33 86.5557C159.264 86.3669 159.231 86.1726 159.231 85.9727C159.231 85.7728 159.269 85.584 159.347 85.4063C159.425 85.2287 159.53 85.0732 159.664 84.94C159.797 84.8067 159.952 84.7012 160.13 84.6235C160.308 84.5457 160.502 84.5069 160.713 84.5069H161.912V79.2933C161.923 78.5827 162.068 77.9108 162.345 77.2779C162.623 76.6338 163 76.073 163.478 75.5956C163.955 75.107 164.511 74.7239 165.144 74.4462C165.788 74.1686 166.476 74.0298 167.209 74.0298C167.631 74.0298 167.986 74.1742 168.275 74.4629C168.564 74.7516 168.708 75.107 168.708 75.5289C168.708 75.9287 168.564 76.2729 168.275 76.5616C167.986 76.8393 167.637 76.9781 167.226 76.9781H167.209C166.887 76.9781 166.582 77.0391 166.293 77.1613C166.015 77.2834 165.771 77.45 165.56 77.661C165.36 77.872 165.194 78.1218 165.06 78.4105C164.938 78.6881 164.872 78.9824 164.86 79.2933V79.3933V84.5069H166.859C167.07 84.5069 167.265 84.5457 167.442 84.6235C167.631 84.7012 167.792 84.8067 167.925 84.94C168.059 85.0732 168.164 85.2287 168.242 85.4063C168.32 85.584 168.358 85.7728 168.358 85.9727C168.358 86.1837 168.32 86.378 168.242 86.5557C168.164 86.7333 168.059 86.8888 167.925 87.022C167.792 87.1553 167.631 87.2608 167.442 87.3385C167.265 87.4163 167.07 87.4551 166.859 87.4551H164.86V95.5669C164.86 96.2998 164.722 96.9883 164.444 97.6324C164.166 98.2875 163.789 98.8538 163.311 99.3313C162.834 99.8199 162.273 100.203 161.629 100.481C160.985 100.769 160.297 100.914 159.564 100.914ZM178.319 96.1999C177.198 96.1999 176.148 95.9889 175.171 95.5669C174.194 95.1339 173.339 94.5509 172.606 93.818C171.884 93.0851 171.312 92.2245 170.89 91.2362C170.468 90.2479 170.257 89.193 170.257 88.0714C170.257 86.9499 170.468 85.8949 170.89 84.9066C171.312 83.9183 171.884 83.0577 172.606 82.3249C173.339 81.5809 174.194 80.9979 175.171 80.5759C176.148 80.1428 177.198 79.9263 178.319 79.9263C179.441 79.9263 180.484 80.1373 181.451 80.5592C182.428 80.9812 183.277 81.5586 183.999 82.2915C184.721 83.0133 185.293 83.8628 185.715 84.84C186.137 85.8172 186.359 86.861 186.381 87.9715V88.0714V94.6008C186.381 95.0228 186.237 95.3837 185.948 95.6835C185.659 95.9722 185.304 96.1166 184.882 96.1166C184.46 96.1166 184.116 95.9722 183.849 95.6835C183.583 95.3837 183.449 95.0228 183.449 94.6008L183.433 94.3676C182.733 94.9451 181.95 95.3948 181.084 95.7168C180.218 96.0389 179.296 96.1999 178.319 96.1999ZM178.319 93.2516C179.052 93.2516 179.729 93.1184 180.351 92.8519C180.973 92.5743 181.512 92.2023 181.967 91.7359C182.433 91.2584 182.794 90.7087 183.05 90.0869C183.316 89.4539 183.449 88.7821 183.449 88.0714C183.449 87.3607 183.316 86.6945 183.05 86.0726C182.794 85.4397 182.433 84.89 181.967 84.4236C181.512 83.9572 180.973 83.5908 180.351 83.3243C179.729 83.0466 179.052 82.9078 178.319 82.9078C177.597 82.9078 176.925 83.0466 176.304 83.3243C175.682 83.5908 175.143 83.9572 174.688 84.4236C174.233 84.89 173.872 85.4397 173.605 86.0726C173.339 86.6945 173.205 87.3607 173.205 88.0714C173.205 88.7821 173.339 89.4539 173.605 90.0869C173.872 90.7087 174.233 91.2584 174.688 91.7359C175.143 92.2023 175.682 92.5743 176.304 92.8519C176.925 93.1184 177.597 93.2516 178.319 93.2516ZM189.512 85.6229V85.4063C189.512 84.6512 189.657 83.9406 189.945 83.2743C190.234 82.608 190.623 82.0306 191.111 81.542C191.611 81.0423 192.189 80.6481 192.844 80.3594C193.51 80.0706 194.221 79.9263 194.976 79.9263C195.775 79.9263 196.514 80.0873 197.191 80.4093C197.88 80.7203 198.479 81.1478 198.99 81.6919C199.49 81.1478 200.078 80.7203 200.756 80.4093C201.444 80.0873 202.188 79.9263 202.988 79.9263C203.743 79.9263 204.459 80.0706 205.136 80.3594C205.814 80.6481 206.402 81.0423 206.902 81.542C207.413 82.0306 207.818 82.608 208.118 83.2743C208.418 83.9406 208.568 84.6512 208.568 85.4063V94.5342C208.568 94.9562 208.423 95.306 208.135 95.5836C207.846 95.8612 207.502 96 207.102 96C206.691 96 206.341 95.8612 206.052 95.5836C205.775 95.306 205.636 94.9562 205.636 94.5342V85.5729C205.636 85.2176 205.564 84.8844 205.42 84.5735C205.286 84.2515 205.097 83.9739 204.853 83.7407C204.62 83.4964 204.342 83.3076 204.02 83.1743C203.698 83.03 203.36 82.9578 203.004 82.9578C202.671 82.9578 202.355 83.0189 202.055 83.141C201.766 83.2632 201.505 83.4353 201.272 83.6574C201.05 83.8684 200.867 84.1182 200.722 84.4069C200.589 84.6957 200.511 85.001 200.489 85.3231C200.5 85.3564 200.506 85.423 200.506 85.5229V88.9209C200.506 89.1319 200.467 89.3262 200.389 89.5039C200.311 89.6816 200.206 89.837 200.073 89.9703C199.939 90.1035 199.784 90.209 199.606 90.2868C199.429 90.3645 199.24 90.4034 199.04 90.4034C198.629 90.4034 198.279 90.2645 197.991 89.9869C197.713 89.6982 197.574 89.3429 197.574 88.9209V85.5896C197.574 85.2231 197.508 84.8844 197.374 84.5735C197.241 84.2515 197.058 83.9683 196.825 83.724C196.603 83.4797 196.336 83.2909 196.025 83.1577C195.714 83.0133 195.381 82.9412 195.026 82.9412C194.693 82.9412 194.382 83.0022 194.093 83.1244C193.804 83.2354 193.543 83.3909 193.31 83.5908C193.088 83.7906 192.899 84.0294 192.744 84.307C192.599 84.5735 192.505 84.8622 192.461 85.1731C192.472 85.2287 192.477 85.2786 192.477 85.3231C192.488 85.3564 192.494 85.4008 192.494 85.4563L192.444 94.5342C192.444 94.9562 192.3 95.306 192.011 95.5836C191.722 95.8612 191.383 96 190.995 96C190.584 96 190.234 95.8612 189.945 95.5836C189.657 95.306 189.512 94.9562 189.512 94.5342V85.6229ZM211.416 76.2951C211.416 76.0619 211.46 75.8454 211.549 75.6455C211.638 75.4456 211.755 75.2735 211.899 75.1292C212.054 74.9737 212.232 74.8516 212.432 74.7627C212.643 74.6739 212.865 74.6295 213.098 74.6295C213.331 74.6295 213.548 74.6739 213.748 74.7627C213.948 74.8516 214.125 74.9737 214.281 75.1292C214.436 75.2735 214.558 75.4456 214.647 75.6455C214.736 75.8454 214.781 76.0619 214.781 76.2951C214.781 76.5283 214.736 76.7449 214.647 76.9447C214.558 77.1446 214.436 77.3223 214.281 77.4778C214.125 77.6221 213.948 77.7387 213.748 77.8275C213.548 77.9164 213.331 77.9608 213.098 77.9608C212.865 77.9608 212.643 77.9164 212.432 77.8275C212.232 77.7387 212.054 77.6221 211.899 77.4778C211.755 77.3223 211.638 77.1446 211.549 76.9447C211.46 76.7449 211.416 76.5283 211.416 76.2951ZM211.599 81.4087C211.599 81.2089 211.638 81.0201 211.716 80.8424C211.793 80.6536 211.899 80.4926 212.032 80.3594C212.177 80.2261 212.338 80.1206 212.515 80.0429C212.704 79.9652 212.904 79.9263 213.115 79.9263C213.526 79.9263 213.864 80.0706 214.131 80.3594C214.409 80.6481 214.547 80.9979 214.547 81.4087V94.6508C214.547 95.0617 214.403 95.4115 214.114 95.7002C213.837 95.9778 213.498 96.1166 213.098 96.1166C212.687 96.1166 212.332 95.9778 212.032 95.7002C211.744 95.4115 211.599 95.0617 211.599 94.6508V81.4087ZM218.328 75.6455C218.328 75.2236 218.467 74.8738 218.745 74.5961C219.023 74.3074 219.361 74.1631 219.761 74.1631C219.961 74.1631 220.15 74.2019 220.327 74.2797C220.516 74.3463 220.677 74.4462 220.81 74.5795C220.955 74.7127 221.066 74.8738 221.143 75.0625C221.232 75.2402 221.277 75.4345 221.277 75.6455V90.4367C221.277 91.3028 221.504 91.9691 221.96 92.4355C222.426 92.8908 223.065 93.1184 223.875 93.1184C224.297 93.1184 224.641 93.2628 224.908 93.5515C225.185 93.8291 225.324 94.1678 225.324 94.5675C225.324 94.9895 225.191 95.3393 224.925 95.6169C224.658 95.8834 224.314 96.0167 223.892 96.0167C223.103 96.0167 222.37 95.8834 221.693 95.6169C221.016 95.3504 220.427 94.9728 219.928 94.4842C219.428 93.9845 219.034 93.396 218.745 92.7186C218.467 92.0302 218.328 91.2695 218.328 90.4367V75.6455ZM227.023 81.3921C227.023 80.9812 227.162 80.637 227.44 80.3594C227.728 80.0706 228.078 79.9263 228.489 79.9263C228.7 79.9263 228.889 79.9652 229.055 80.0429C229.233 80.1095 229.389 80.2095 229.522 80.3427C229.666 80.476 229.777 80.6314 229.855 80.8091C229.933 80.9868 229.971 81.1811 229.971 81.3921V88.288C229.971 88.9764 230.099 89.6149 230.355 90.2035C230.61 90.792 230.96 91.3084 231.404 91.7525C231.848 92.1856 232.365 92.5299 232.953 92.7853C233.553 93.0296 234.191 93.1517 234.869 93.1517C235.546 93.1517 236.179 93.024 236.767 92.7686C237.356 92.5132 237.867 92.1634 238.3 91.7192C238.744 91.2639 239.094 90.7365 239.349 90.1368C239.605 89.5372 239.732 88.8876 239.732 88.188V81.3921C239.732 80.9812 239.877 80.637 240.165 80.3594C240.465 80.0706 240.821 79.9263 241.231 79.9263C241.653 79.9263 241.998 80.0706 242.264 80.3594C242.542 80.637 242.681 80.9812 242.681 81.3921V88.2546C242.681 89.2207 242.52 90.1368 242.198 91.003C241.875 91.858 241.426 92.6298 240.848 93.3183C240.282 93.9956 239.61 94.5675 238.833 95.0339C238.056 95.4892 237.212 95.8001 236.301 95.9667V100.181C236.301 100.381 236.262 100.569 236.184 100.747C236.107 100.936 236.001 101.097 235.868 101.23C235.735 101.375 235.579 101.48 235.402 101.547C235.235 101.624 235.046 101.663 234.835 101.663C234.413 101.663 234.058 101.519 233.769 101.23C233.492 100.953 233.353 100.603 233.353 100.181V95.95C232.442 95.7835 231.604 95.467 230.838 95.0006C230.071 94.5342 229.4 93.9623 228.822 93.285C228.256 92.5965 227.812 91.8247 227.49 90.9697C227.179 90.1146 227.023 89.2096 227.023 88.2546V81.3921Z" fill="#FFCEBE"/>
</g>
<defs>
<filter id="filter0_i_574_1547" x="94.2188" y="-7.25" width="58" height="65.25" filterUnits="userSpaceOnUse" color-interpolation-filters="sRGB">
<feFlood flood-opacity="0" result="BackgroundImageFix"/>
<feBlend mode="normal" in="SourceGraphic" in2="BackgroundImageFix" result="shape"/>
<feColorMatrix in="SourceAlpha" type="matrix" values="0 0 0 0 0 0 0 0 0 0 0 0 0 0 0 0 0 0 127 0" result="hardAlpha"/>
<feOffset dy="-7.25"/>
<feGaussianBlur stdDeviation="4.46154"/>
<feComposite in2="hardAlpha" operator="arithmetic" k2="-1" k3="1"/>
<feColorMatrix type="matrix" values="0 0 0 0 0.916667 0 0 0 0 0.775038 0 0 0 0 0.729514 0 0 0 0.5 0"/>
<feBlend mode="normal" in2="shape" result="effect1_innerShadow_574_1547"/>
</filter>
<filter id="filter1_i_574_1547" x="94.2188" y="-7.25" width="58" height="65.25" filterUnits="userSpaceOnUse" color-interpolation-filters="sRGB">
<feFlood flood-opacity="0" result="BackgroundImageFix"/>
<feBlend mode="normal" in="SourceGraphic" in2="BackgroundImageFix" result="shape"/>
<feColorMatrix in="SourceAlpha" type="matrix" values="0 0 0 0 0 0 0 0 0 0 0 0 0 0 0 0 0 0 127 0" result="hardAlpha"/>
<feOffset dy="-7.25"/>
<feGaussianBlur stdDeviation="4.46154"/>
<feComposite in2="hardAlpha" operator="arithmetic" k2="-1" k3="1"/>
<feColorMatrix type="matrix" values="0 0 0 0 0.925 0 0 0 0 0.629829 0 0 0 0 0.543437 0 0 0 0.3 0"/>
<feBlend mode="normal" in2="shape" result="effect1_innerShadow_574_1547"/>
</filter>
<filter id="filter2_i_574_1547" x="98.1211" y="15.7487" width="58.4805" height="49.1483" filterUnits="userSpaceOnUse" color-interpolation-filters="sRGB">
<feFlood flood-opacity="0" result="BackgroundImageFix"/>
<feBlend mode="normal" in="SourceGraphic" in2="BackgroundImageFix" result="shape"/>
<feColorMatrix in="SourceAlpha" type="matrix" values="0 0 0 0 0 0 0 0 0 0 0 0 0 0 0 0 0 0 127 0" result="hardAlpha"/>
<feOffset dy="1.44692"/>
<feGaussianBlur stdDeviation="0.643272"/>
<feComposite in2="hardAlpha" operator="arithmetic" k2="-1" k3="1"/>
<feColorMatrix type="matrix" values="0 0 0 0 1 0 0 0 0 1 0 0 0 0 1 0 0 0 0.3 0"/>
<feBlend mode="normal" in2="shape" result="effect1_innerShadow_574_1547"/>
</filter>
<linearGradient id="paint0_linear_574_1547" x1="123.219" y1="0" x2="123.219" y2="83.6538" gradientUnits="userSpaceOnUse">
<stop stop-color="#FFF2EE"/>
<stop offset="1" stop-color="#FFC9B8"/>
</linearGradient>
<linearGradient id="paint1_linear_574_1547" x1="123.219" y1="0" x2="123.219" y2="83.6538" gradientUnits="userSpaceOnUse">
<stop stop-color="#0B4EFD"/>
<stop offset="1" stop-color="#003F9D"/>
</linearGradient>
<linearGradient id="paint2_linear_574_1547" x1="123.219" y1="0" x2="123.219" y2="58" gradientUnits="userSpaceOnUse">
<stop stop-color="#FFE4DE"/>
<stop offset="1" stop-color="#F4B09A"/>
</linearGradient>
<linearGradient id="paint3_linear_574_1547" x1="135.486" y1="34.8558" x2="113.217" y2="105.971" gradientUnits="userSpaceOnUse">
<stop stop-color="white"/>
<stop offset="1" stop-color="#F4CCC0"/>
</linearGradient>
<clipPath id="clip0_574_1547">
<rect width="246" height="101" fill="white" transform="translate(0.21875)"/>
</clipPath>
<clipPath id="clip1_574_1547">
<rect x="94.2188" width="58" height="58" rx="15.95" fill="white"/>
</clipPath>
<clipPath id="clip2_574_1547">
<rect x="94.2188" width="58" height="58" rx="16.7308" fill="white"/>
</clipPath>
</defs>
</svg>
