<svg width="232" height="58" viewBox="0 0 232 58" fill="none" xmlns="http://www.w3.org/2000/svg">
<g clip-path="url(#clip0_574_2085)">
<g filter="url(#filter0_i_574_2085)">
<g clip-path="url(#clip1_574_2085)">
<rect x="0.21875" width="58" height="58" rx="16.7308" fill="url(#paint0_linear_574_2085)"/>
<rect x="0.21875" width="58" height="58" rx="16.7308" fill="url(#paint1_linear_574_2085)"/>
<path d="M35.8148 19.6815C35.6462 19.2402 35.0994 18.8341 34.2204 18.5063C35.1096 18.8341 35.6564 19.2503 35.8148 19.6815Z" fill="#9A2F00"/>
<path d="M36.3734 19.1229C36.2048 18.6816 35.658 18.2755 34.779 17.9477C35.6682 18.2755 36.215 18.6917 36.3734 19.1229Z" fill="#9A2F00"/>
<g filter="url(#filter1_i_574_2085)">
<path fill-rule="evenodd" clip-rule="evenodd" d="M46.9945 16.5375C46.2243 16.0228 45.3188 15.748 44.3924 15.748C43.7777 15.7475 43.1688 15.8681 42.6007 16.103C42.0326 16.3379 41.5163 16.6825 41.0814 17.117C40.6465 17.5515 40.3015 18.0675 40.0662 18.6354C39.8308 19.2033 39.7096 19.812 39.7096 20.4268C39.7088 21.3531 39.9828 22.2589 40.4968 23.0295C41.0109 23.8001 41.742 24.401 42.5976 24.756C43.4532 25.1111 44.3949 25.2044 45.3035 25.0242C46.2121 24.844 47.0469 24.3983 47.7022 23.7435C48.3575 23.0888 48.8039 22.2544 48.985 21.3459C49.166 20.4374 49.0735 19.4957 48.7192 18.6398C48.3649 17.7839 47.7647 17.0523 46.9945 16.5375ZM23.6864 29.2755C23.0703 28.8637 22.3458 28.6439 21.6047 28.6439C20.6118 28.6439 19.6596 29.0381 18.9571 29.7398C18.2547 30.4415 17.8595 31.3933 17.8585 32.3862C17.8577 33.1273 18.0767 33.852 18.4879 34.4686C18.8991 35.0852 19.4839 35.566 20.1684 35.8501C20.8528 36.1342 21.6062 36.209 22.3332 36.0649C23.0601 35.9208 23.728 35.5643 24.2523 35.0405C24.7766 34.5168 25.1338 33.8493 25.2787 33.1225C25.4236 32.3956 25.3496 31.6422 25.0662 30.9574C24.7827 30.2727 24.3026 29.6874 23.6864 29.2755ZM12.6618 57.4741C8.94669 51.3781 6.12105 36.1727 5.47416 32.1746C5.25344 30.8282 4.96448 29.6254 4.7103 28.5674C3.99709 25.5986 3.55763 23.7694 5.66733 23.1038C7.41847 22.5518 8.9106 24.9404 10.9956 28.2781C12.5638 30.7885 14.4673 33.8357 17.0687 36.5725C20.675 40.3754 24.9446 40.688 28.3316 40.9361C31.0708 41.1367 33.2328 41.295 34.0001 43.223C34.524 44.5164 32.7049 45.7353 30.6028 47.1439C29.0998 48.151 27.4521 49.2551 26.4127 50.5527C22.5462 55.3957 22.6937 58.5756 22.8986 62.995L22.8986 62.9954C22.908 63.1971 22.9174 63.4015 22.9267 63.6087L12.6618 57.4741ZM44.8263 57.0491C44.8222 58.708 44.8181 60.3795 45.1821 61.9523L52.3601 56.0428C55.9267 52.454 58.6744 48.1411 60.3326 43.4998C62.4361 37.4804 62.8285 30.4331 62.4969 24.0886C62.4885 23.8763 62.4855 23.6334 62.4822 23.3698C62.4614 21.6793 62.4301 19.1373 60.8834 18.3388C59.7973 17.7737 58.0989 19.952 57.652 20.5257C54.9122 23.9075 51.7924 27.121 47.3721 28.415C42.9638 29.7029 38.4601 29.2917 33.9668 28.8814C33.5991 28.8479 33.2316 28.8143 32.8641 28.7817C31.3311 28.6523 28.5734 28.4366 28.2516 30.4855C27.9834 32.2281 29.6461 34.0657 30.9333 35.0535C31.8965 35.7867 32.9817 36.3307 34.0687 36.8757C34.7723 37.2284 35.4766 37.5816 36.1492 37.9866C37.8063 39.0563 39.2506 40.4049 40.4131 41.9679C43.059 45.3411 44.3731 49.7106 44.7351 53.8818C44.8315 54.9123 44.8289 55.9781 44.8263 57.0491Z" fill="url(#paint2_linear_574_2085)"/>
</g>
</g>
</g>
<path d="M76.5235 15.8524V15.672C76.5235 15.0427 76.6438 14.4505 76.8844 13.8952C77.125 13.34 77.4489 12.8588 77.8561 12.4517C78.2725 12.0352 78.7537 11.7067 79.2996 11.4661C79.8549 11.2255 80.4471 11.1052 81.0764 11.1052C81.7426 11.1052 82.358 11.2394 82.9225 11.5078C83.4962 11.7669 83.9959 12.1232 84.4216 12.5766C84.838 12.1232 85.3284 11.7669 85.8929 11.5078C86.4666 11.2394 87.0866 11.1052 87.7529 11.1052C88.3822 11.1052 88.979 11.2255 89.5435 11.4661C90.108 11.7067 90.5984 12.0352 91.0148 12.4517C91.4405 12.8588 91.7783 13.34 92.0281 13.8952C92.278 14.4505 92.4029 15.0427 92.4029 15.672V23.2785C92.4029 23.6302 92.2826 23.9216 92.042 24.153C91.8014 24.3843 91.5145 24.5 91.1814 24.5C90.839 24.5 90.5475 24.3843 90.3069 24.153C90.0756 23.9216 89.9599 23.6302 89.9599 23.2785V15.8108C89.9599 15.5146 89.8998 15.237 89.7795 14.9779C89.6684 14.7096 89.5111 14.4782 89.3075 14.2839C89.1132 14.0803 88.8819 13.923 88.6135 13.812C88.3451 13.6917 88.0629 13.6315 87.7668 13.6315C87.4892 13.6315 87.2254 13.6824 86.9756 13.7842C86.735 13.886 86.5175 14.0294 86.3232 14.2145C86.1381 14.3903 85.9855 14.5985 85.8652 14.8391C85.7541 15.0797 85.6893 15.3342 85.6708 15.6026C85.6801 15.6303 85.6847 15.6858 85.6847 15.7691V18.6008C85.6847 18.7766 85.6523 18.9385 85.5875 19.0866C85.5228 19.2346 85.4349 19.3642 85.3238 19.4752C85.2128 19.5863 85.0832 19.6742 84.9352 19.739C84.7871 19.8037 84.6298 19.8361 84.4632 19.8361C84.1208 19.8361 83.8293 19.7205 83.5887 19.4891C83.3574 19.2485 83.2417 18.9524 83.2417 18.6008V15.8246C83.2417 15.5193 83.1862 15.237 83.0752 14.9779C82.9641 14.7096 82.8114 14.4736 82.6171 14.27C82.432 14.0664 82.2099 13.9091 81.9508 13.7981C81.6917 13.6778 81.4141 13.6176 81.118 13.6176C80.8404 13.6176 80.5813 13.6685 80.3407 13.7703C80.1001 13.8629 79.8826 13.9924 79.6883 14.159C79.5032 14.3255 79.3459 14.5245 79.2164 14.7558C79.0961 14.9779 79.0174 15.2185 78.9804 15.4776C78.9896 15.5239 78.9943 15.5655 78.9943 15.6026C79.0035 15.6303 79.0081 15.6673 79.0081 15.7136L78.9665 23.2785C78.9665 23.6302 78.8462 23.9216 78.6056 24.153C78.365 24.3843 78.0828 24.5 77.7589 24.5C77.4165 24.5 77.125 24.3843 76.8844 24.153C76.6438 23.9216 76.5235 23.6302 76.5235 23.2785V15.8524ZM94.7765 8.07928C94.7765 7.88495 94.8135 7.7045 94.8875 7.53793C94.9616 7.37137 95.0587 7.22794 95.179 7.10764C95.3086 6.97809 95.4566 6.87629 95.6232 6.80226C95.799 6.72823 95.9841 6.69122 96.1784 6.69122C96.3727 6.69122 96.5532 6.72823 96.7198 6.80226C96.8863 6.87629 97.0344 6.97809 97.1639 7.10764C97.2935 7.22794 97.3953 7.37137 97.4693 7.53793C97.5433 7.7045 97.5804 7.88495 97.5804 8.07928C97.5804 8.27361 97.5433 8.45405 97.4693 8.62062C97.3953 8.78719 97.2935 8.93525 97.1639 9.0648C97.0344 9.1851 96.8863 9.28226 96.7198 9.35629C96.5532 9.43032 96.3727 9.46734 96.1784 9.46734C95.9841 9.46734 95.799 9.43032 95.6232 9.35629C95.4566 9.28226 95.3086 9.1851 95.179 9.0648C95.0587 8.93525 94.9616 8.78719 94.8875 8.62062C94.8135 8.45405 94.7765 8.27361 94.7765 8.07928ZM94.9292 12.3406C94.9292 12.174 94.9616 12.0167 95.0263 11.8687C95.0911 11.7114 95.179 11.5772 95.2901 11.4661C95.4104 11.3551 95.5445 11.2672 95.6926 11.2024C95.8499 11.1376 96.0165 11.1052 96.1923 11.1052C96.5347 11.1052 96.8169 11.2255 97.039 11.4661C97.2704 11.7067 97.386 11.9982 97.386 12.3406V23.3757C97.386 23.7181 97.2657 24.0096 97.0251 24.2501C96.7938 24.4815 96.5116 24.5972 96.1784 24.5972C95.836 24.5972 95.5399 24.4815 95.2901 24.2501C95.0495 24.0096 94.9292 23.7181 94.9292 23.3757V12.3406ZM100.537 7.53793C100.537 7.18629 100.653 6.8948 100.884 6.66346C101.115 6.42286 101.398 6.30256 101.731 6.30256C101.897 6.30256 102.055 6.33495 102.203 6.39973C102.36 6.45525 102.494 6.53853 102.605 6.64958C102.725 6.76062 102.818 6.8948 102.883 7.05211C102.957 7.20017 102.994 7.36211 102.994 7.53793V19.8639C102.994 20.5857 103.183 21.1409 103.563 21.5296C103.952 21.909 104.484 22.0987 105.159 22.0987C105.511 22.0987 105.798 22.219 106.02 22.4596C106.251 22.6909 106.367 22.9731 106.367 23.3063C106.367 23.6579 106.256 23.9494 106.034 24.1807C105.812 24.4028 105.525 24.5139 105.173 24.5139C104.516 24.5139 103.905 24.4028 103.341 24.1807C102.776 23.9587 102.286 23.644 101.869 23.2369C101.453 22.8205 101.125 22.33 100.884 21.7655C100.653 21.1918 100.537 20.5579 100.537 19.8639V7.53793ZM108.366 7.53793C108.366 7.18629 108.481 6.8948 108.713 6.66346C108.944 6.42286 109.226 6.30256 109.559 6.30256C109.726 6.30256 109.883 6.33495 110.031 6.39973C110.189 6.45525 110.323 6.53853 110.434 6.64958C110.554 6.76062 110.647 6.8948 110.711 7.05211C110.785 7.20017 110.822 7.36211 110.822 7.53793V19.8639C110.822 20.5857 111.012 21.1409 111.392 21.5296C111.78 21.909 112.312 22.0987 112.988 22.0987C113.339 22.0987 113.626 22.219 113.848 22.4596C114.08 22.6909 114.195 22.9731 114.195 23.3063C114.195 23.6579 114.084 23.9494 113.862 24.1807C113.64 24.4028 113.353 24.5139 113.002 24.5139C112.345 24.5139 111.734 24.4028 111.169 24.1807C110.605 23.9587 110.115 23.644 109.698 23.2369C109.282 22.8205 108.953 22.33 108.713 21.7655C108.481 21.1918 108.366 20.5579 108.366 19.8639V7.53793ZM117.832 19.0033C117.934 19.4752 118.11 19.9148 118.36 20.3219C118.609 20.7199 118.915 21.0669 119.276 21.363C119.637 21.6591 120.039 21.8905 120.483 22.057C120.937 22.2236 121.413 22.3069 121.913 22.3069C122.394 22.3069 122.792 22.2652 123.107 22.1819C123.421 22.0894 123.736 21.9506 124.051 21.7655C124.31 21.6175 124.555 21.5434 124.786 21.5434C124.953 21.5434 125.106 21.5805 125.244 21.6545C125.392 21.7193 125.522 21.8118 125.633 21.9321C125.744 22.0431 125.832 22.1773 125.897 22.3346C125.962 22.4919 125.994 22.6539 125.994 22.8205C125.994 23.1166 125.883 23.3803 125.661 23.6116C125.439 23.8337 125.138 24.0234 124.759 24.1807C124.388 24.3381 123.953 24.4584 123.454 24.5416C122.963 24.6249 122.45 24.6666 121.913 24.6666C120.978 24.6666 120.095 24.4907 119.262 24.1391C118.438 23.7782 117.716 23.2924 117.096 22.6816C116.486 22.0709 116 21.3537 115.639 20.5302C115.287 19.7066 115.112 18.8275 115.112 17.8928C115.112 16.949 115.287 16.0652 115.639 15.2417C116 14.4181 116.486 13.7009 117.096 13.0902C117.716 12.4794 118.438 11.9982 119.262 11.6466C120.095 11.2857 120.978 11.1052 121.913 11.1052C122.838 11.1052 123.713 11.2811 124.536 11.6327C125.36 11.9843 126.077 12.4655 126.688 13.0763C127.308 13.687 127.798 14.4042 128.159 15.2278C128.52 16.0421 128.705 16.912 128.714 17.8373C128.714 18.1705 128.603 18.4481 128.381 18.6702C128.159 18.8922 127.872 19.0033 127.521 19.0033H117.832ZM126.202 16.949C126.119 16.4493 125.948 15.9866 125.689 15.5609C125.439 15.1352 125.124 14.7651 124.745 14.4505C124.374 14.1358 123.949 13.8906 123.468 13.7148C122.996 13.539 122.491 13.4511 121.955 13.4511C121.409 13.4511 120.9 13.5436 120.428 13.7287C119.956 13.9045 119.535 14.1543 119.165 14.4782C118.795 14.7928 118.489 15.163 118.249 15.5887C118.008 16.0143 117.846 16.4678 117.763 16.949H126.202ZM130.283 17.6985V17.643C130.283 16.7454 130.445 15.8987 130.769 15.1028C131.102 14.307 131.555 13.613 132.129 13.0208C132.703 12.4285 133.378 11.9612 134.156 11.6188C134.933 11.2764 135.77 11.1052 136.668 11.1052C137.575 11.1052 138.417 11.2764 139.194 11.6188C139.981 11.9612 140.661 12.4285 141.235 13.0208C141.818 13.613 142.271 14.307 142.595 15.1028C142.928 15.8987 143.095 16.7454 143.095 17.643V17.7124V23.2924C143.095 23.644 142.979 23.9355 142.748 24.1669C142.516 24.389 142.23 24.5 141.887 24.5C141.545 24.5 141.253 24.389 141.013 24.1669C140.772 23.9355 140.652 23.644 140.652 23.2924V17.6985V17.6708C140.643 17.1063 140.536 16.5788 140.333 16.0884C140.129 15.5887 139.847 15.1537 139.486 14.7836C139.134 14.4134 138.718 14.122 138.237 13.9091C137.755 13.687 137.233 13.576 136.668 13.576C136.104 13.576 135.581 13.6824 135.1 13.8952C134.628 14.0988 134.216 14.3857 133.864 14.7558C133.513 15.126 133.235 15.5609 133.031 16.0606C132.837 16.5511 132.74 17.0785 132.74 17.643V23.2924C132.74 23.644 132.624 23.9355 132.393 24.1669C132.171 24.389 131.889 24.5 131.546 24.5C131.38 24.5 131.218 24.4722 131.06 24.4167C130.912 24.3519 130.778 24.2687 130.658 24.1669C130.547 24.0558 130.454 23.9263 130.38 23.7782C130.315 23.6302 130.283 23.4682 130.283 23.2924V17.6985ZM145.385 17.6985V17.643C145.385 16.7454 145.547 15.8987 145.871 15.1028C146.204 14.307 146.657 13.613 147.231 13.0208C147.805 12.4285 148.48 11.9612 149.258 11.6188C150.035 11.2764 150.873 11.1052 151.77 11.1052C152.677 11.1052 153.519 11.2764 154.296 11.6188C155.083 11.9612 155.763 12.4285 156.337 13.0208C156.92 13.613 157.373 14.307 157.697 15.1028C158.03 15.8987 158.197 16.7454 158.197 17.643V17.7124V23.2924C158.197 23.644 158.081 23.9355 157.85 24.1669C157.618 24.389 157.332 24.5 156.989 24.5C156.647 24.5 156.355 24.389 156.115 24.1669C155.874 23.9355 155.754 23.644 155.754 23.2924V17.6985V17.6708C155.745 17.1063 155.638 16.5788 155.435 16.0884C155.231 15.5887 154.949 15.1537 154.588 14.7836C154.236 14.4134 153.82 14.122 153.339 13.9091C152.857 13.687 152.335 13.576 151.77 13.576C151.206 13.576 150.683 13.6824 150.202 13.8952C149.73 14.0988 149.318 14.3857 148.966 14.7558C148.615 15.126 148.337 15.5609 148.133 16.0606C147.939 16.5511 147.842 17.0785 147.842 17.643V23.2924C147.842 23.644 147.726 23.9355 147.495 24.1669C147.273 24.389 146.991 24.5 146.648 24.5C146.482 24.5 146.32 24.4722 146.162 24.4167C146.014 24.3519 145.88 24.2687 145.76 24.1669C145.649 24.0558 145.556 23.9263 145.482 23.7782C145.417 23.6302 145.385 23.4682 145.385 23.2924V17.6985ZM160.793 8.07928C160.793 7.88495 160.83 7.7045 160.904 7.53793C160.978 7.37137 161.075 7.22794 161.195 7.10764C161.325 6.97809 161.473 6.87629 161.639 6.80226C161.815 6.72823 162 6.69122 162.194 6.69122C162.389 6.69122 162.569 6.72823 162.736 6.80226C162.902 6.87629 163.05 6.97809 163.18 7.10764C163.31 7.22794 163.411 7.37137 163.485 7.53793C163.559 7.7045 163.596 7.88495 163.596 8.07928C163.596 8.27361 163.559 8.45405 163.485 8.62062C163.411 8.78719 163.31 8.93525 163.18 9.0648C163.05 9.1851 162.902 9.28226 162.736 9.35629C162.569 9.43032 162.389 9.46734 162.194 9.46734C162 9.46734 161.815 9.43032 161.639 9.35629C161.473 9.28226 161.325 9.1851 161.195 9.0648C161.075 8.93525 160.978 8.78719 160.904 8.62062C160.83 8.45405 160.793 8.27361 160.793 8.07928ZM160.945 12.3406C160.945 12.174 160.978 12.0167 161.042 11.8687C161.107 11.7114 161.195 11.5772 161.306 11.4661C161.426 11.3551 161.561 11.2672 161.709 11.2024C161.866 11.1376 162.033 11.1052 162.208 11.1052C162.551 11.1052 162.833 11.2255 163.055 11.4661C163.286 11.7067 163.402 11.9982 163.402 12.3406V23.3757C163.402 23.7181 163.282 24.0096 163.041 24.2501C162.81 24.4815 162.528 24.5972 162.194 24.5972C161.852 24.5972 161.556 24.4815 161.306 24.2501C161.065 24.0096 160.945 23.7181 160.945 23.3757V12.3406ZM166.095 12.3267C166.095 11.9843 166.211 11.6975 166.442 11.4661C166.682 11.2255 166.974 11.1052 167.316 11.1052C167.65 11.1052 167.936 11.2255 168.177 11.4661C168.418 11.6975 168.538 11.9843 168.538 12.3267V18.2121C168.547 18.7673 168.654 19.2902 168.857 19.7806C169.07 20.2618 169.352 20.6828 169.704 21.0437C170.065 21.4046 170.486 21.6915 170.967 21.9043C171.448 22.1079 171.971 22.2097 172.535 22.2097C173.1 22.2097 173.609 22.1033 174.062 21.8905C174.525 21.6776 174.918 21.3861 175.242 21.016C175.566 20.6458 175.816 20.2155 175.992 19.7251C176.177 19.2254 176.269 18.6933 176.269 18.1288V12.3267C176.269 12.1602 176.302 12.0029 176.367 11.8548C176.441 11.7067 176.533 11.5772 176.644 11.4661C176.755 11.3551 176.885 11.2672 177.033 11.2024C177.19 11.1376 177.352 11.1052 177.519 11.1052C177.87 11.1052 178.157 11.2255 178.379 11.4661C178.611 11.6975 178.726 11.9843 178.726 12.3267V18.0733V18.1427C178.726 19.0403 178.569 19.887 178.254 20.6828C177.949 21.4694 177.523 22.1588 176.977 22.751C176.431 23.3433 175.779 23.8106 175.02 24.153C174.261 24.4954 173.433 24.6666 172.535 24.6666C171.629 24.6666 170.782 24.4954 169.995 24.153C169.218 23.8106 168.538 23.3433 167.955 22.751C167.381 22.1588 166.928 21.4694 166.595 20.6828C166.261 19.887 166.095 19.0403 166.095 18.1427V12.3267ZM181.266 15.8524V15.672C181.266 15.0427 181.387 14.4505 181.627 13.8952C181.868 13.34 182.192 12.8588 182.599 12.4517C183.015 12.0352 183.497 11.7067 184.042 11.4661C184.598 11.2255 185.19 11.1052 185.819 11.1052C186.485 11.1052 187.101 11.2394 187.665 11.5078C188.239 11.7669 188.739 12.1232 189.164 12.5766C189.581 12.1232 190.071 11.7669 190.636 11.5078C191.209 11.2394 191.829 11.1052 192.496 11.1052C193.125 11.1052 193.722 11.2255 194.286 11.4661C194.851 11.7067 195.341 12.0352 195.758 12.4517C196.183 12.8588 196.521 13.34 196.771 13.8952C197.021 14.4505 197.146 15.0427 197.146 15.672V23.2785C197.146 23.6302 197.025 23.9216 196.785 24.153C196.544 24.3843 196.257 24.5 195.924 24.5C195.582 24.5 195.29 24.3843 195.05 24.153C194.818 23.9216 194.703 23.6302 194.703 23.2785V15.8108C194.703 15.5146 194.643 15.237 194.522 14.9779C194.411 14.7096 194.254 14.4782 194.05 14.2839C193.856 14.0803 193.625 13.923 193.356 13.812C193.088 13.6917 192.806 13.6315 192.51 13.6315C192.232 13.6315 191.968 13.6824 191.718 13.7842C191.478 13.886 191.26 14.0294 191.066 14.2145C190.881 14.3903 190.728 14.5985 190.608 14.8391C190.497 15.0797 190.432 15.3342 190.414 15.6026C190.423 15.6303 190.428 15.6858 190.428 15.7691V18.6008C190.428 18.7766 190.395 18.9385 190.33 19.0866C190.266 19.2346 190.178 19.3642 190.067 19.4752C189.956 19.5863 189.826 19.6742 189.678 19.739C189.53 19.8037 189.373 19.8361 189.206 19.8361C188.864 19.8361 188.572 19.7205 188.332 19.4891C188.1 19.2485 187.985 18.9524 187.985 18.6008V15.8246C187.985 15.5193 187.929 15.237 187.818 14.9779C187.707 14.7096 187.554 14.4736 187.36 14.27C187.175 14.0664 186.953 13.9091 186.694 13.7981C186.435 13.6778 186.157 13.6176 185.861 13.6176C185.583 13.6176 185.324 13.6685 185.084 13.7703C184.843 13.8629 184.625 13.9924 184.431 14.159C184.246 14.3255 184.089 14.5245 183.959 14.7558C183.839 14.9779 183.76 15.2185 183.723 15.4776C183.732 15.5239 183.737 15.5655 183.737 15.6026C183.746 15.6303 183.751 15.6673 183.751 15.7136L183.709 23.2785C183.709 23.6302 183.589 23.9216 183.348 24.153C183.108 24.3843 182.826 24.5 182.502 24.5C182.159 24.5 181.868 24.3843 181.627 24.153C181.387 23.9216 181.266 23.6302 181.266 23.2785V15.8524Z" fill="#1E1B1C"/>
<path d="M76.7456 51.5948C76.579 51.5948 76.4217 51.5624 76.2737 51.4976C76.1256 51.4328 75.9961 51.3449 75.885 51.2339C75.774 51.1228 75.6861 50.9887 75.6213 50.8313C75.5565 50.6833 75.5241 50.5213 75.5241 50.3455C75.5241 50.179 75.5565 50.0216 75.6213 49.8736C75.6861 49.7348 75.774 49.6098 75.885 49.4988C75.9961 49.3878 76.1256 49.2998 76.2737 49.2351C76.4217 49.1703 76.579 49.1379 76.7456 49.1379H76.7873C77.0649 49.1287 77.3193 49.0685 77.5507 48.9575C77.782 48.8464 77.981 48.6984 78.1476 48.5133C78.3234 48.3375 78.4576 48.1293 78.5501 47.8887C78.6519 47.6573 78.7028 47.4075 78.7028 47.1391V40.3793H77.7034C77.5276 40.3793 77.361 40.3469 77.2037 40.2821C77.0556 40.2173 76.9261 40.1294 76.815 40.0184C76.704 39.9073 76.6161 39.7778 76.5513 39.6297C76.4958 39.4724 76.468 39.3105 76.468 39.1439C76.468 38.9773 76.5004 38.82 76.5652 38.672C76.6299 38.5239 76.7179 38.3943 76.8289 38.2833C76.9399 38.1723 77.0695 38.0843 77.2176 38.0196C77.3656 37.9548 77.5276 37.9224 77.7034 37.9224H78.7028V33.5778C78.712 32.9855 78.8323 32.4257 79.0637 31.8982C79.295 31.3615 79.6096 30.8942 80.0075 30.4963C80.4055 30.0891 80.8681 29.7699 81.3956 29.5385C81.9323 29.3072 82.5061 29.1915 83.1168 29.1915C83.4684 29.1915 83.7646 29.3118 84.0052 29.5524C84.2458 29.793 84.3661 30.0891 84.3661 30.4408C84.3661 30.7739 84.2458 31.0608 84.0052 31.3014C83.7646 31.5327 83.4731 31.6484 83.1307 31.6484H83.1168C82.8484 31.6484 82.594 31.6993 82.3534 31.8011C82.122 31.9029 81.9184 32.0417 81.7426 32.2175C81.5761 32.3933 81.4372 32.6015 81.3262 32.8421C81.2244 33.0735 81.1689 33.3187 81.1596 33.5778V33.6611V37.9224H82.8253C83.0011 37.9224 83.1631 37.9548 83.3111 38.0196C83.4684 38.0843 83.6026 38.1723 83.7137 38.2833C83.8247 38.3943 83.9126 38.5239 83.9774 38.672C84.0422 38.82 84.0746 38.9773 84.0746 39.1439C84.0746 39.3197 84.0422 39.4817 83.9774 39.6297C83.9126 39.7778 83.8247 39.9073 83.7137 40.0184C83.6026 40.1294 83.4684 40.2173 83.3111 40.2821C83.1631 40.3469 83.0011 40.3793 82.8253 40.3793H81.1596V47.1391C81.1596 47.7499 81.044 48.3236 80.8126 48.8603C80.5813 49.4063 80.2667 49.8782 79.8687 50.2761C79.4708 50.6833 79.0035 51.0025 78.4668 51.2339C77.9301 51.4745 77.3564 51.5948 76.7456 51.5948ZM92.3751 47.6666C91.4405 47.6666 90.566 47.4907 89.7517 47.1391C88.9374 46.7782 88.2249 46.2924 87.6141 45.6816C87.0126 45.0709 86.536 44.3537 86.1844 43.5302C85.8328 42.7066 85.6569 41.8275 85.6569 40.8928C85.6569 39.9582 85.8328 39.0791 86.1844 38.2555C86.536 37.432 87.0126 36.7148 87.6141 36.104C88.2249 35.484 88.9374 34.9982 89.7517 34.6466C90.566 34.2857 91.4405 34.1052 92.3751 34.1052C93.3098 34.1052 94.1796 34.2811 94.9847 34.6327C95.799 34.9843 96.5069 35.4655 97.1084 36.0763C97.7099 36.6778 98.1865 37.3857 98.5381 38.2C98.8898 39.0143 99.0748 39.8842 99.0933 40.8096V40.8928V46.334C99.0933 46.6857 98.973 46.9864 98.7324 47.2363C98.4919 47.4769 98.1957 47.5972 97.8441 47.5972C97.4924 47.5972 97.2056 47.4769 96.9835 47.2363C96.7614 46.9864 96.6504 46.6857 96.6504 46.334L96.6365 46.1397C96.0535 46.6209 95.4011 46.9957 94.6793 47.264C93.9575 47.5324 93.1895 47.6666 92.3751 47.6666ZM92.3751 45.2097C92.9859 45.2097 93.5504 45.0987 94.0686 44.8766C94.5868 44.6452 95.0356 44.3352 95.415 43.9466C95.8036 43.5487 96.1044 43.0906 96.3172 42.5724C96.5393 42.0449 96.6504 41.4851 96.6504 40.8928C96.6504 40.3006 96.5393 39.7454 96.3172 39.2272C96.1044 38.6997 95.8036 38.2417 95.415 37.853C95.0356 37.4643 94.5868 37.159 94.0686 36.9369C93.5504 36.7055 92.9859 36.5899 92.3751 36.5899C91.7737 36.5899 91.2138 36.7055 90.6956 36.9369C90.1774 37.159 89.7286 37.4643 89.3492 37.853C88.9698 38.2417 88.669 38.6997 88.4469 39.2272C88.2249 39.7454 88.1138 40.3006 88.1138 40.8928C88.1138 41.4851 88.2249 42.0449 88.4469 42.5724C88.669 43.0906 88.9698 43.5487 89.3492 43.9466C89.7286 44.3352 90.1774 44.6452 90.6956 44.8766C91.2138 45.0987 91.7737 45.2097 92.3751 45.2097ZM101.703 38.8524V38.672C101.703 38.0427 101.823 37.4505 102.064 36.8952C102.304 36.34 102.628 35.8588 103.035 35.4517C103.452 35.0352 103.933 34.7067 104.479 34.4661C105.034 34.2255 105.626 34.1052 106.256 34.1052C106.922 34.1052 107.537 34.2394 108.102 34.5078C108.676 34.7669 109.175 35.1232 109.601 35.5766C110.017 35.1232 110.508 34.7669 111.072 34.5078C111.646 34.2394 112.266 34.1052 112.932 34.1052C113.562 34.1052 114.158 34.2255 114.723 34.4661C115.287 34.7067 115.778 35.0352 116.194 35.4517C116.62 35.8588 116.958 36.34 117.207 36.8952C117.457 37.4505 117.582 38.0427 117.582 38.672V46.2785C117.582 46.6302 117.462 46.9216 117.221 47.153C116.981 47.3843 116.694 47.5 116.361 47.5C116.018 47.5 115.727 47.3843 115.486 47.153C115.255 46.9216 115.139 46.6302 115.139 46.2785V38.8108C115.139 38.5146 115.079 38.237 114.959 37.9779C114.848 37.7096 114.69 37.4782 114.487 37.2839C114.293 37.0803 114.061 36.923 113.793 36.812C113.525 36.6917 113.242 36.6315 112.946 36.6315C112.669 36.6315 112.405 36.6824 112.155 36.7842C111.914 36.886 111.697 37.0294 111.503 37.2145C111.318 37.3903 111.165 37.5985 111.045 37.8391C110.933 38.0797 110.869 38.3342 110.85 38.6026C110.859 38.6303 110.864 38.6858 110.864 38.7691V41.6008C110.864 41.7766 110.832 41.9385 110.767 42.0866C110.702 42.2346 110.614 42.3642 110.503 42.4752C110.392 42.5863 110.263 42.6742 110.115 42.739C109.966 42.8037 109.809 42.8361 109.643 42.8361C109.3 42.8361 109.009 42.7205 108.768 42.4891C108.537 42.2485 108.421 41.9524 108.421 41.6008V38.8246C108.421 38.5193 108.366 38.237 108.255 37.9779C108.143 37.7096 107.991 37.4736 107.796 37.27C107.611 37.0664 107.389 36.9091 107.13 36.7981C106.871 36.6778 106.593 36.6176 106.297 36.6176C106.02 36.6176 105.761 36.6685 105.52 36.7703C105.279 36.8629 105.062 36.9924 104.868 37.159C104.683 37.3255 104.525 37.5245 104.396 37.7558C104.275 37.9779 104.197 38.2185 104.16 38.4776C104.169 38.5239 104.174 38.5655 104.174 38.6026C104.183 38.6303 104.188 38.6673 104.188 38.7136L104.146 46.2785C104.146 46.6302 104.026 46.9216 103.785 47.153C103.544 47.3843 103.262 47.5 102.938 47.5C102.596 47.5 102.304 47.3843 102.064 47.153C101.823 46.9216 101.703 46.6302 101.703 46.2785V38.8524ZM119.956 31.0793C119.956 30.8849 119.993 30.7045 120.067 30.5379C120.141 30.3714 120.238 30.2279 120.358 30.1076C120.488 29.9781 120.636 29.8763 120.803 29.8023C120.978 29.7282 121.163 29.6912 121.358 29.6912C121.552 29.6912 121.733 29.7282 121.899 29.8023C122.066 29.8763 122.214 29.9781 122.343 30.1076C122.473 30.2279 122.575 30.3714 122.649 30.5379C122.723 30.7045 122.76 30.8849 122.76 31.0793C122.76 31.2736 122.723 31.4541 122.649 31.6206C122.575 31.7872 122.473 31.9352 122.343 32.0648C122.214 32.1851 122.066 32.2823 121.899 32.3563C121.733 32.4303 121.552 32.4673 121.358 32.4673C121.163 32.4673 120.978 32.4303 120.803 32.3563C120.636 32.2823 120.488 32.1851 120.358 32.0648C120.238 31.9352 120.141 31.7872 120.067 31.6206C119.993 31.4541 119.956 31.2736 119.956 31.0793ZM120.109 35.3406C120.109 35.174 120.141 35.0167 120.206 34.8687C120.27 34.7114 120.358 34.5772 120.469 34.4661C120.59 34.3551 120.724 34.2672 120.872 34.2024C121.029 34.1376 121.196 34.1052 121.372 34.1052C121.714 34.1052 121.996 34.2255 122.218 34.4661C122.45 34.7067 122.565 34.9982 122.565 35.3406V46.3757C122.565 46.7181 122.445 47.0096 122.205 47.2501C121.973 47.4815 121.691 47.5972 121.358 47.5972C121.015 47.5972 120.719 47.4815 120.469 47.2501C120.229 47.0096 120.109 46.7181 120.109 46.3757V35.3406ZM125.716 30.5379C125.716 30.1863 125.832 29.8948 126.063 29.6635C126.295 29.4229 126.577 29.3026 126.91 29.3026C127.077 29.3026 127.234 29.335 127.382 29.3997C127.539 29.4552 127.673 29.5385 127.784 29.6496C127.905 29.7606 127.997 29.8948 128.062 30.0521C128.136 30.2002 128.173 30.3621 128.173 30.5379V42.8639C128.173 43.5857 128.363 44.1409 128.742 44.5296C129.131 44.909 129.663 45.0987 130.339 45.0987C130.69 45.0987 130.977 45.219 131.199 45.4596C131.43 45.6909 131.546 45.9731 131.546 46.3063C131.546 46.6579 131.435 46.9494 131.213 47.1807C130.991 47.4028 130.704 47.5139 130.352 47.5139C129.695 47.5139 129.085 47.4028 128.52 47.1807C127.956 46.9587 127.465 46.644 127.049 46.2369C126.632 45.8205 126.304 45.33 126.063 44.7655C125.832 44.1918 125.716 43.5579 125.716 42.8639V30.5379ZM132.962 35.3267C132.962 34.9843 133.078 34.6975 133.309 34.4661C133.55 34.2255 133.841 34.1052 134.183 34.1052C134.359 34.1052 134.517 34.1376 134.655 34.2024C134.803 34.2579 134.933 34.3412 135.044 34.4523C135.164 34.5633 135.257 34.6929 135.322 34.8409C135.386 34.989 135.419 35.1509 135.419 35.3267V41.0733C135.419 41.647 135.525 42.1791 135.738 42.6696C135.951 43.16 136.242 43.5903 136.613 43.9605C136.983 44.3213 137.413 44.6082 137.903 44.821C138.403 45.0246 138.935 45.1264 139.5 45.1264C140.064 45.1264 140.592 45.02 141.082 44.8072C141.573 44.5943 141.998 44.3028 142.359 43.9327C142.729 43.5533 143.021 43.1137 143.234 42.614C143.446 42.1143 143.553 41.573 143.553 40.99V35.3267C143.553 34.9843 143.673 34.6975 143.914 34.4661C144.164 34.2255 144.46 34.1052 144.802 34.1052C145.154 34.1052 145.441 34.2255 145.663 34.4661C145.894 34.6975 146.01 34.9843 146.01 35.3267V41.0455C146.01 41.8506 145.876 42.614 145.607 43.3358C145.339 44.0484 144.964 44.6915 144.483 45.2652C144.011 45.8297 143.451 46.3063 142.803 46.6949C142.156 47.0743 141.452 47.3334 140.693 47.4722V50.984C140.693 51.1506 140.661 51.3079 140.596 51.456C140.531 51.6133 140.444 51.7475 140.333 51.8585C140.221 51.9788 140.092 52.0667 139.944 52.1222C139.805 52.187 139.648 52.2194 139.472 52.2194C139.12 52.2194 138.824 52.0991 138.584 51.8585C138.352 51.6272 138.237 51.3357 138.237 50.984V47.4584C137.478 47.3196 136.779 47.0558 136.141 46.6672C135.502 46.2785 134.942 45.8019 134.461 45.2375C133.989 44.6637 133.619 44.0206 133.351 43.3081C133.091 42.5955 132.962 41.8414 132.962 41.0455V35.3267Z" fill="#F89C7E"/>
</g>
<defs>
<filter id="filter0_i_574_2085" x="0.21875" y="-7.25" width="58" height="65.25" filterUnits="userSpaceOnUse" color-interpolation-filters="sRGB">
<feFlood flood-opacity="0" result="BackgroundImageFix"/>
<feBlend mode="normal" in="SourceGraphic" in2="BackgroundImageFix" result="shape"/>
<feColorMatrix in="SourceAlpha" type="matrix" values="0 0 0 0 0 0 0 0 0 0 0 0 0 0 0 0 0 0 127 0" result="hardAlpha"/>
<feOffset dy="-7.25"/>
<feGaussianBlur stdDeviation="4.46154"/>
<feComposite in2="hardAlpha" operator="arithmetic" k2="-1" k3="1"/>
<feColorMatrix type="matrix" values="0 0 0 0 0.925 0 0 0 0 0.629829 0 0 0 0 0.543437 0 0 0 0.3 0"/>
<feBlend mode="normal" in2="shape" result="effect1_innerShadow_574_2085"/>
</filter>
<filter id="filter1_i_574_2085" x="4.12109" y="15.748" width="58.4805" height="49.1479" filterUnits="userSpaceOnUse" color-interpolation-filters="sRGB">
<feFlood flood-opacity="0" result="BackgroundImageFix"/>
<feBlend mode="normal" in="SourceGraphic" in2="BackgroundImageFix" result="shape"/>
<feColorMatrix in="SourceAlpha" type="matrix" values="0 0 0 0 0 0 0 0 0 0 0 0 0 0 0 0 0 0 127 0" result="hardAlpha"/>
<feOffset dy="1.44692"/>
<feGaussianBlur stdDeviation="0.643272"/>
<feComposite in2="hardAlpha" operator="arithmetic" k2="-1" k3="1"/>
<feColorMatrix type="matrix" values="0 0 0 0 1 0 0 0 0 1 0 0 0 0 1 0 0 0 0.3 0"/>
<feBlend mode="normal" in2="shape" result="effect1_innerShadow_574_2085"/>
</filter>
<linearGradient id="paint0_linear_574_2085" x1="29.2188" y1="0" x2="29.2188" y2="83.6538" gradientUnits="userSpaceOnUse">
<stop stop-color="#0B4EFD"/>
<stop offset="1" stop-color="#003F9D"/>
</linearGradient>
<linearGradient id="paint1_linear_574_2085" x1="29.2188" y1="0" x2="29.2187" y2="58" gradientUnits="userSpaceOnUse">
<stop stop-color="#FFE4DE"/>
<stop offset="1" stop-color="#F4B09A"/>
</linearGradient>
<linearGradient id="paint2_linear_574_2085" x1="41.4862" y1="34.8546" x2="19.2179" y2="105.968" gradientUnits="userSpaceOnUse">
<stop stop-color="white"/>
<stop offset="1" stop-color="#F4CCC0"/>
</linearGradient>
<clipPath id="clip0_574_2085">
<rect width="231" height="58" fill="white" transform="translate(0.21875)"/>
</clipPath>
<clipPath id="clip1_574_2085">
<rect x="0.21875" width="58" height="58" rx="16.7308" fill="white"/>
</clipPath>
</defs>
</svg>
