<svg width="81" height="80" viewBox="0 0 81 80" fill="none" xmlns="http://www.w3.org/2000/svg">
<rect x="0.21875" width="80" height="80" rx="22" fill="#EDEDED"/>
<g filter="url(#filter0_i_574_1737)">
<path d="M59.4688 27.7501H51.795C51.8803 27.6779 51.9678 27.6079 52.0509 27.5314C52.7153 26.9411 53.2507 26.2202 53.6237 25.4136C53.9967 24.6069 54.1993 23.732 54.2188 22.8436C54.2475 21.8716 54.0773 20.904 53.7185 20.0002C53.3598 19.0964 52.8201 18.2755 52.1326 17.5878C51.4452 16.9001 50.6244 16.3602 49.7207 16.0012C48.817 15.6422 47.8495 15.4717 46.8775 15.5001C45.9887 15.5193 45.1133 15.7217 44.3063 16.0947C43.4993 16.4677 42.778 17.0033 42.1875 17.6679C41.3704 18.6149 40.7062 19.6836 40.2188 20.8354C39.7313 19.6836 39.0671 18.6149 38.25 17.6679C37.6595 17.0033 36.9382 16.4677 36.1312 16.0947C35.3242 15.7217 34.4488 15.5193 33.56 15.5001C32.588 15.4717 31.6205 15.6422 30.7168 16.0012C29.8131 16.3602 28.9923 16.9001 28.3049 17.5878C27.6174 18.2755 27.0777 19.0964 26.719 20.0002C26.3602 20.904 26.19 21.8716 26.2188 22.8436C26.2382 23.732 26.4408 24.6069 26.8138 25.4136C27.1868 26.2202 27.7222 26.9411 28.3866 27.5314C28.4697 27.6036 28.5572 27.6736 28.6425 27.7501H20.9688C20.0405 27.7501 19.1503 28.1189 18.4939 28.7753C17.8375 29.4316 17.4688 30.3219 17.4688 31.2501V38.2501C17.4688 39.1784 17.8375 40.0686 18.4939 40.725C19.1503 41.3814 20.0405 41.7501 20.9688 41.7501V55.7501C20.9688 56.6784 21.3375 57.5686 21.9939 58.225C22.6503 58.8814 23.5405 59.2501 24.4688 59.2501H37.5938C37.8258 59.2501 38.0484 59.1579 38.2125 58.9938C38.3766 58.8298 38.4688 58.6072 38.4688 58.3751V38.2501H20.9688V31.2501H38.4688V38.2501H41.9688V31.2501H59.4688V38.2501H41.9688V58.3751C41.9688 58.6072 42.0609 58.8298 42.225 58.9938C42.3891 59.1579 42.6117 59.2501 42.8438 59.2501H55.9688C56.897 59.2501 57.7872 58.8814 58.4436 58.225C59.1 57.5686 59.4688 56.6784 59.4688 55.7501V41.7501C60.397 41.7501 61.2872 41.3814 61.9436 40.725C62.6 40.0686 62.9688 39.1784 62.9688 38.2501V31.2501C62.9688 30.3219 62.6 29.4316 61.9436 28.7753C61.2872 28.1189 60.397 27.7501 59.4688 27.7501ZM30.7053 24.9064C30.3993 24.6293 30.1539 24.2919 29.9845 23.9155C29.8151 23.5391 29.7254 23.1317 29.7209 22.7189C29.7099 22.2352 29.7955 21.7542 29.9727 21.3041C30.1499 20.8539 30.4151 20.4437 30.7529 20.0973C31.0907 19.751 31.4942 19.4755 31.9397 19.2871C32.3853 19.0987 32.864 19.0012 33.3478 19.0001H33.455C33.8678 19.0046 34.2752 19.0943 34.6516 19.2637C35.0281 19.4331 35.3654 19.6785 35.6425 19.9845C37.4778 22.0582 38.1253 25.497 38.3528 27.6232C36.2178 27.3979 32.7812 26.7504 30.7053 24.9064ZM49.7366 24.9064C47.6606 26.7439 44.2153 27.3914 42.0803 27.6189C42.3406 25.3198 43.0625 21.9532 44.8125 19.9867C45.0896 19.6807 45.4269 19.4353 45.8034 19.2659C46.1798 19.0965 46.5872 19.0068 47 19.0023H47.1072C47.591 19.0053 48.0693 19.1049 48.5142 19.2952C48.959 19.4854 49.3614 19.7625 49.6977 20.1103C50.0341 20.4581 50.2977 20.8695 50.473 21.3204C50.6483 21.7713 50.7319 22.2527 50.7188 22.7364C50.7116 23.1463 50.6204 23.5505 50.4507 23.9238C50.281 24.297 50.0364 24.6315 49.7322 24.9064H49.7366Z" fill="url(#paint0_linear_574_1737)"/>
</g>
<defs>
<filter id="filter0_i_574_1737" x="17.4688" y="15.4971" width="45.5" height="44.9567" filterUnits="userSpaceOnUse" color-interpolation-filters="sRGB">
<feFlood flood-opacity="0" result="BackgroundImageFix"/>
<feBlend mode="normal" in="SourceGraphic" in2="BackgroundImageFix" result="shape"/>
<feColorMatrix in="SourceAlpha" type="matrix" values="0 0 0 0 0 0 0 0 0 0 0 0 0 0 0 0 0 0 127 0" result="hardAlpha"/>
<feOffset dy="1.2038"/>
<feGaussianBlur stdDeviation="0.769231"/>
<feComposite in2="hardAlpha" operator="arithmetic" k2="-1" k3="1"/>
<feColorMatrix type="matrix" values="0 0 0 0 0.937255 0 0 0 0 0.908314 0 0 0 0 0.901961 0 0 0 0.6 0"/>
<feBlend mode="normal" in2="shape" result="effect1_innerShadow_574_1737"/>
</filter>
<linearGradient id="paint0_linear_574_1737" x1="6.71875" y1="-4" x2="65.8707" y2="53.4561" gradientUnits="userSpaceOnUse">
<stop stop-color="#FFC0AC"/>
<stop offset="1" stop-color="#0047FF"/>
</linearGradient>
</defs>
</svg>
