<svg width="65" height="64" viewBox="0 0 65 64" fill="none" xmlns="http://www.w3.org/2000/svg">
<rect x="0.21875" width="64" height="64" rx="18" fill="white"/>
<path fill-rule="evenodd" clip-rule="evenodd" d="M22.4432 22.6902L22.5811 22.8279C23.3175 23.5652 24.3172 23.9804 25.3602 23.9819C26.4032 23.9835 27.4041 23.5715 28.1428 22.8363L32.2223 18.7638L29.4404 15.9865C26.9643 13.5199 23.6341 12.0964 20.1372 12.01C16.6403 11.9236 13.2437 13.1809 10.6484 15.5223C10.7168 15.4741 10.7865 15.4282 10.8574 15.3847C10.845 15.3935 10.8326 15.4021 10.8203 15.4108C10.7705 15.4458 10.7215 15.4802 10.6733 15.5139C10.5077 15.6644 10.3442 15.8192 10.1849 15.9782C10.0256 16.1372 9.87271 16.2983 9.72193 16.4615C9.67301 16.5305 9.62255 16.5966 9.57129 16.6603C9.61323 16.5927 9.65731 16.5263 9.70351 16.4612C7.42258 18.9602 6.16254 22.2218 6.17193 25.6027C6.16676 27.3911 6.51717 29.1627 7.20286 30.8148C7.88854 32.467 8.89587 33.9669 10.1665 35.2276L22.5896 47.6297C22.9545 47.9942 23.3877 48.2832 23.8645 48.4805C24.3412 48.6777 24.8523 48.7792 25.3684 48.7792C25.8845 48.7792 26.3955 48.6777 26.8723 48.4805C27.3491 48.2832 27.7823 47.9942 28.1472 47.6297L32.2288 43.5572L17.0151 28.3757L17.005 28.3655L17.0251 28.3761C16.2999 27.6368 15.8963 26.6416 15.9021 25.6069C15.9079 24.5722 16.3226 23.5816 17.0561 22.8505C17.7896 22.1194 18.7825 21.7069 19.8189 21.7027C20.7878 21.6987 21.7216 22.0518 22.4432 22.6902Z" fill="url(#paint0_linear_574_1913)"/>
<path d="M22.5811 22.8288L15.6878 15.9472C15.032 15.2959 14.1672 14.8963 13.2455 14.8188C12.3237 14.7412 11.4041 14.9907 10.6484 15.5232C13.2437 13.1819 16.6403 11.9246 20.1372 12.011C23.6341 12.0974 26.9643 13.5209 29.4404 15.9875L32.2223 18.7647L28.1428 22.8373C27.4041 23.5724 26.4032 23.9845 25.3602 23.9829C24.3172 23.9813 23.3175 23.5662 22.5811 22.8288Z" fill="url(#paint1_linear_574_1913)"/>
<path fill-rule="evenodd" clip-rule="evenodd" d="M47.4236 28.3796L54.3041 21.5001C54.9581 20.8478 55.3607 19.9861 55.4411 19.0667C55.5215 18.1473 55.2746 17.2291 54.7437 16.4735C54.5951 16.3081 54.4401 16.147 54.2808 15.988C54.1222 15.8283 53.9587 15.6736 53.7902 15.5237C53.0349 14.9913 52.1156 14.742 51.1942 14.8195C50.2729 14.8971 49.4084 15.2966 48.753 15.9477L41.8597 22.8293C42.5994 22.1045 43.5958 21.7005 44.6323 21.7052C45.6687 21.7098 46.6615 22.1227 47.3947 22.854C48.1278 23.5854 48.5422 24.5762 48.5476 25.6109C48.553 26.6456 48.1491 27.6406 47.4236 28.3796ZM32.2289 43.5587L28.1473 47.6313C27.7821 47.9986 27.3477 48.2901 26.8692 48.489C26.3906 48.688 25.8774 48.7904 25.359 48.7904C24.8406 48.7904 24.3273 48.688 23.8488 48.489C23.3786 48.2936 22.951 48.0087 22.5898 47.6505L26.5843 51.6403C28.078 53.128 30.1019 53.9636 32.2119 53.9636C34.3219 53.9636 36.3458 53.128 37.8395 51.6403L54.2763 35.2292C56.7519 32.7589 58.1808 29.4327 58.267 25.9394C58.3531 22.4462 57.09 19.0538 54.7393 16.4648C55.2743 17.2195 55.525 18.1385 55.4473 19.0597C55.3696 19.981 54.9684 20.8452 54.3145 21.4999L47.4319 28.3815L32.2289 43.5587Z" fill="url(#paint2_linear_574_1913)"/>
<path d="M48.746 15.9473L41.8528 22.8289L37.837 26.8378C36.3436 28.3261 34.3196 29.162 32.2094 29.162C30.0992 29.162 28.0753 28.3261 26.5818 26.8378L22.5703 22.8289C23.3079 23.5651 24.3082 23.9787 25.3512 23.9787C26.3942 23.9787 27.3945 23.5651 28.1321 22.8289L32.2115 18.7563L34.9914 15.9791C37.4679 13.5134 40.7979 12.0906 44.2945 12.0042C47.7911 11.9178 51.1876 13.1744 53.7833 15.5148C53.027 14.9835 52.1071 14.7355 51.1857 14.8147C50.2643 14.8938 49.4004 15.2948 48.746 15.9473Z" fill="url(#paint3_linear_574_1913)"/>
<defs>
<linearGradient id="paint0_linear_574_1913" x1="38.6042" y1="51.3293" x2="14.8293" y2="30.2446" gradientUnits="userSpaceOnUse">
<stop stop-color="#FD6DB2"/>
<stop offset="1" stop-color="#FFB3E1"/>
</linearGradient>
<linearGradient id="paint1_linear_574_1913" x1="41.5749" y1="15.1886" x2="25.8247" y2="5.07483" gradientUnits="userSpaceOnUse">
<stop stop-color="#FD6DB2"/>
<stop offset="0.0666667" stop-color="#FD6EB3" stop-opacity="0.991353"/>
<stop offset="0.133333" stop-color="#FD6FB4" stop-opacity="0.96449"/>
<stop offset="0.2" stop-color="#FD73B6" stop-opacity="0.91834"/>
<stop offset="0.266667" stop-color="#FD77B9" stop-opacity="0.852589"/>
<stop offset="0.333333" stop-color="#FD7DBD" stop-opacity="0.768225"/>
<stop offset="0.4" stop-color="#FE84C2" stop-opacity="0.668116"/>
<stop offset="0.466667" stop-color="#FE8CC7" stop-opacity="0.557309"/>
<stop offset="0.533333" stop-color="#FE94CC" stop-opacity="0.442691"/>
<stop offset="0.6" stop-color="#FE9CD1" stop-opacity="0.331884"/>
<stop offset="0.666667" stop-color="#FFA3D6" stop-opacity="0.231775"/>
<stop offset="0.733333" stop-color="#FFA9DA" stop-opacity="0.147411"/>
<stop offset="0.8" stop-color="#FFADDD" stop-opacity="0.0816599"/>
<stop offset="0.866667" stop-color="#FFB1DF" stop-opacity="0.03551"/>
<stop offset="0.933333" stop-color="#FFB2E0" stop-opacity="0.01"/>
<stop offset="1" stop-color="#FFB3E1" stop-opacity="0"/>
</linearGradient>
<linearGradient id="paint2_linear_574_1913" x1="34.9903" y1="6.68551" x2="35.3436" y2="42.7048" gradientUnits="userSpaceOnUse">
<stop stop-color="#FD6DB2"/>
<stop offset="1" stop-color="#FFB3E1"/>
</linearGradient>
<linearGradient id="paint3_linear_574_1913" x1="56.8726" y1="32.8345" x2="48.5946" y2="12.7491" gradientUnits="userSpaceOnUse">
<stop stop-color="#FD6DB2"/>
<stop offset="1" stop-color="#FFB3E1"/>
</linearGradient>
</defs>
</svg>
