<svg width="65" height="64" viewBox="0 0 65 64" fill="none" xmlns="http://www.w3.org/2000/svg">
<g filter="url(#filter0_i_574_1865)">
<rect x="0.21875" width="64" height="64" rx="18" fill="white"/>
<rect x="0.21875" width="64" height="64" rx="18" fill="url(#paint0_linear_574_1865)"/>
<rect x="0.21875" width="64" height="64" rx="18" fill="url(#paint1_linear_574_1865)"/>
<g filter="url(#filter1_i_574_1865)">
<path fill-rule="evenodd" clip-rule="evenodd" d="M32.3588 13.1575L16.389 20.208C16.2993 20.2482 16.2234 20.3124 16.1702 20.3929C16.117 20.4734 16.0888 20.567 16.0888 20.6626C16.0888 20.7581 16.117 20.8517 16.1702 20.9322C16.2234 21.0128 16.2993 21.0769 16.389 21.1171L32.3588 28.1636C32.5966 28.2695 32.8553 28.3243 33.1171 28.3243C33.379 28.3243 33.6377 28.2695 33.8755 28.1636L49.8411 21.1171C49.9322 21.0782 50.0096 21.0145 50.064 20.9338C50.1183 20.8531 50.1473 20.7589 50.1473 20.6626C50.1473 20.5663 50.1183 20.472 50.064 20.3913C50.0096 20.3106 49.9322 20.247 49.8411 20.208L33.8755 13.1575C33.6371 13.0537 33.3786 13 33.1171 13C32.8557 13 32.5972 13.0537 32.3588 13.1575ZM34.648 28.8788C34.1668 29.0891 33.6448 29.1978 33.1167 29.1978C32.5886 29.1978 32.0665 29.0891 31.5853 28.8788L21.6073 24.4707V31.1374C21.6073 33.6263 26.7217 35.6424 33.031 35.6424C39.3404 35.6424 44.4505 33.6222 44.4505 31.1374V24.5475L34.648 28.8788ZM20.7139 31.1377C20.7139 34.2001 26.0068 36.511 33.0297 36.5115C40.0483 36.511 45.3454 34.2001 45.3454 31.1377V27.9021L57.9138 33.384C58.0074 33.4219 58.0868 33.4864 58.1417 33.5689C58.1965 33.6515 58.2242 33.7482 58.221 33.8462C58.2178 33.9443 58.184 34.0391 58.1239 34.1182C58.0638 34.1972 57.9804 34.2568 57.8845 34.289L53.9652 35.8203L35.1625 43.1698C34.4008 43.4648 33.5509 43.4648 32.7892 43.1698L32.4382 43.0325L11.6382 34.9072C11.2559 34.7573 10.8466 34.6827 10.4341 34.6878C10.0216 34.6928 9.61435 34.7774 9.23612 34.9366C8.85789 35.0957 8.5163 35.3263 8.23138 35.6147C7.94645 35.9031 7.72391 36.2436 7.5768 36.6163C7.29213 37.3706 7.32479 38.2028 7.66778 38.9342C8.01076 39.6655 8.63669 40.2375 9.41111 40.5274L32.8477 49.6628L32.9145 49.683L33.1193 49.7516L33.207 49.7759L33.3783 49.8163H33.4076H33.4828L33.7084 49.8486H33.746H34.0093H34.1597H34.3101L34.4689 49.8284H34.6068L34.7823 49.788L34.8993 49.7557L35.0998 49.687L35.1708 49.6668L35.2126 49.6466L43.6739 46.3415L50.6852 43.5941L58.2188 40.6082C58.2188 41.5173 58.0391 41.8809 57.0029 42.285L35.5678 50.6567C35.0618 50.8539 34.5214 50.9554 33.9758 50.9557H33.5998H33.512L33.1986 50.9112H33.1443C32.847 50.8564 32.5569 50.7697 32.2794 50.6527L8.88045 41.5092C8.08433 41.195 7.4054 40.6548 6.93318 39.9599C6.46095 39.265 6.21762 38.448 6.23527 37.6167C6.25292 36.7854 6.53071 35.9788 7.03202 35.3032C7.53334 34.6276 8.23463 34.1148 9.04341 33.8325L20.7139 28.7337V31.1377ZM32.9802 45.9215C33.3019 46.0126 33.6354 46.0589 33.9705 46.0589L33.9831 46.0549C34.3196 46.0551 34.6545 46.0089 34.9775 45.9175H35.0109L56.797 37.4326C56.8857 37.3978 56.9564 37.3304 56.9936 37.2451C57.0308 37.1599 57.0315 37.0638 56.9955 36.9781C56.9595 36.8924 56.8897 36.824 56.8016 36.788C56.7134 36.752 56.6141 36.7513 56.5254 36.7862L34.7602 45.271C34.2559 45.4165 33.7186 45.4165 33.2142 45.271L10.651 36.4468C10.5623 36.4125 10.4632 36.4137 10.3754 36.45C10.2877 36.4864 10.2184 36.555 10.183 36.6407C10.1475 36.7264 10.1487 36.8223 10.1863 36.9071C10.2239 36.992 10.2949 37.0589 10.3835 37.0932L32.9468 45.9215H32.9802ZM32.9802 48.3411C33.3017 48.4335 33.6351 48.4811 33.9705 48.4825L33.983 48.4744C34.3198 48.4733 34.6546 48.4257 34.9775 48.333H35.0109L56.797 39.8482C56.843 39.8326 56.8852 39.8081 56.9212 39.7763C56.9571 39.7444 56.9859 39.7058 57.0059 39.6628C57.026 39.6199 57.0367 39.5734 57.0376 39.5263C57.0384 39.4791 57.0293 39.4323 57.0109 39.3887C56.9924 39.3451 56.965 39.3055 56.9303 39.2725C56.8955 39.2394 56.8542 39.2136 56.8088 39.1965C56.7633 39.1793 56.7148 39.1713 56.6661 39.1729C56.6174 39.1745 56.5695 39.1857 56.5254 39.2057L34.7602 47.6906C34.2558 47.8361 33.7185 47.8361 33.2142 47.6906L10.6509 38.8704C10.5628 38.8357 10.464 38.8362 10.3763 38.8718C10.2886 38.9074 10.219 38.9752 10.1829 39.0603C10.1484 39.1461 10.1501 39.2416 10.1876 39.3262C10.2251 39.4108 10.2954 39.4778 10.3835 39.5128L32.9468 48.3411H32.9802Z" fill="url(#paint2_linear_574_1865)"/>
</g>
</g>
<defs>
<filter id="filter0_i_574_1865" x="0.21875" y="-8" width="64" height="72" filterUnits="userSpaceOnUse" color-interpolation-filters="sRGB">
<feFlood flood-opacity="0" result="BackgroundImageFix"/>
<feBlend mode="normal" in="SourceGraphic" in2="BackgroundImageFix" result="shape"/>
<feColorMatrix in="SourceAlpha" type="matrix" values="0 0 0 0 0 0 0 0 0 0 0 0 0 0 0 0 0 0 127 0" result="hardAlpha"/>
<feOffset dy="-8"/>
<feGaussianBlur stdDeviation="4.92308"/>
<feComposite in2="hardAlpha" operator="arithmetic" k2="-1" k3="1"/>
<feColorMatrix type="matrix" values="0 0 0 0 0.639873 0 0 0 0 0.491944 0 0 0 0 0.766667 0 0 0 0.3 0"/>
<feBlend mode="normal" in2="shape" result="effect1_innerShadow_574_1865"/>
</filter>
<filter id="filter1_i_574_1865" x="6.23438" y="13" width="51.9883" height="38.8406" filterUnits="userSpaceOnUse" color-interpolation-filters="sRGB">
<feFlood flood-opacity="0" result="BackgroundImageFix"/>
<feBlend mode="normal" in="SourceGraphic" in2="BackgroundImageFix" result="shape"/>
<feColorMatrix in="SourceAlpha" type="matrix" values="0 0 0 0 0 0 0 0 0 0 0 0 0 0 0 0 0 0 127 0" result="hardAlpha"/>
<feOffset dy="0.884505"/>
<feGaussianBlur stdDeviation="6"/>
<feComposite in2="hardAlpha" operator="arithmetic" k2="-1" k3="1"/>
<feColorMatrix type="matrix" values="0 0 0 0 0.815686 0 0 0 0 0.65098 0 0 0 0 0.996078 0 0 0 0.3 0"/>
<feBlend mode="normal" in2="shape" result="effect1_innerShadow_574_1865"/>
</filter>
<linearGradient id="paint0_linear_574_1865" x1="32.2486" y1="-60.0047" x2="32.1985" y2="64.1722" gradientUnits="userSpaceOnUse">
<stop stop-color="#E1C4F8"/>
<stop offset="0.0666667" stop-color="#E1C4F8"/>
<stop offset="0.133333" stop-color="#E2C6F8"/>
<stop offset="0.2" stop-color="#E3C8F8"/>
<stop offset="0.266667" stop-color="#E4CBF9"/>
<stop offset="0.333333" stop-color="#E6D0F9"/>
<stop offset="0.4" stop-color="#E8D5FA"/>
<stop offset="0.466667" stop-color="#EBDAFB"/>
<stop offset="0.533333" stop-color="#EDE0FC"/>
<stop offset="0.6" stop-color="#F0E6FD"/>
<stop offset="0.666667" stop-color="#F2EBFD"/>
<stop offset="0.733333" stop-color="#F4EFFE"/>
<stop offset="0.8" stop-color="#F5F2FE"/>
<stop offset="0.866667" stop-color="#F6F5FF"/>
<stop offset="0.933333" stop-color="#F7F6FF"/>
<stop offset="1" stop-color="#F7F7FF"/>
</linearGradient>
<linearGradient id="paint1_linear_574_1865" x1="32.2188" y1="0" x2="32.2187" y2="81.5" gradientUnits="userSpaceOnUse">
<stop stop-color="white"/>
<stop offset="1" stop-color="white" stop-opacity="0"/>
</linearGradient>
<linearGradient id="paint2_linear_574_1865" x1="27.2188" y1="13" x2="40.2188" y2="47.5" gradientUnits="userSpaceOnUse">
<stop stop-color="#D7AEFF"/>
<stop offset="1" stop-color="#6326E6"/>
</linearGradient>
</defs>
</svg>
