<svg width="80" height="80" viewBox="0 0 80 80" fill="none" xmlns="http://www.w3.org/2000/svg">
<rect width="80" height="80" rx="22" fill="#EDEDED"/>
<g filter="url(#filter0_i_487_5782)">
<path d="M61.4375 31.2676C61.35 31.0488 61.2581 30.8301 61.1641 30.6113C59.7527 27.3564 57.4686 24.5552 54.5644 22.5176H59.25C59.7141 22.5176 60.1592 22.3332 60.4874 22.005C60.8156 21.6768 61 21.2317 61 20.7676C61 20.3034 60.8156 19.8583 60.4874 19.5301C60.1592 19.202 59.7141 19.0176 59.25 19.0176H36.5C31.6615 19.0237 27.0022 20.8493 23.4474 24.1318C19.8925 27.4143 17.7022 31.9136 17.3113 36.7363C15.7996 37.1121 14.4565 37.9813 13.4945 39.2064C12.5325 40.4315 12.0066 41.9424 12 43.5001C12 43.9642 12.1844 44.4093 12.5126 44.7375C12.8408 45.0657 13.2859 45.2501 13.75 45.2501C14.2141 45.2501 14.6592 45.0657 14.9874 44.7375C15.3156 44.4093 15.5 43.9642 15.5 43.5001C15.5004 42.8619 15.6753 42.236 16.0057 41.6901C16.3361 41.1441 16.8095 40.6989 17.3747 40.4026C17.8103 44.3288 19.4474 48.0248 22.0625 50.9857L24.81 58.677C25.0529 59.3573 25.5003 59.9457 26.0909 60.3617C26.6815 60.7776 27.3864 61.0006 28.1087 61.0001H30.8913C31.6132 61.0001 32.3176 60.7769 32.9078 60.361C33.4979 59.9451 33.945 59.3569 34.1878 58.677L34.6078 57.5001H47.1422L47.5622 58.677C47.805 59.3569 48.2521 59.9451 48.8422 60.361C49.4324 60.7769 50.1368 61.0001 50.8587 61.0001H53.6413C54.3632 61.0001 55.0676 60.7769 55.6578 60.361C56.2479 59.9451 56.695 59.3569 56.9378 58.677L60.4837 48.7501H61C62.3924 48.7501 63.7277 48.197 64.7123 47.2124C65.6969 46.2278 66.25 44.8925 66.25 43.5001V36.5001C66.2502 35.1833 65.7556 33.9145 64.8642 32.9453C63.9728 31.9761 62.7497 31.3773 61.4375 31.2676ZM45.25 27.7501H36.5C36.0359 27.7501 35.5908 27.5657 35.2626 27.2375C34.9344 26.9093 34.75 26.4642 34.75 26.0001C34.75 25.5359 34.9344 25.0908 35.2626 24.7626C35.5908 24.4345 36.0359 24.2501 36.5 24.2501H45.25C45.7141 24.2501 46.1592 24.4345 46.4874 24.7626C46.8156 25.0908 47 25.5359 47 26.0001C47 26.4642 46.8156 26.9093 46.4874 27.2375C46.1592 27.5657 45.7141 27.7501 45.25 27.7501ZM51.375 40.0001C50.8558 40.0001 50.3483 39.8461 49.9166 39.5577C49.485 39.2692 49.1485 38.8593 48.9498 38.3796C48.7511 37.9 48.6992 37.3722 48.8004 36.863C48.9017 36.3538 49.1517 35.886 49.5188 35.5189C49.886 35.1518 50.3537 34.9018 50.8629 34.8005C51.3721 34.6992 51.8999 34.7512 52.3795 34.9499C52.8592 35.1486 53.2692 35.485 53.5576 35.9167C53.846 36.3484 54 36.8559 54 37.3751C54 38.0713 53.7234 38.7389 53.2312 39.2312C52.7389 39.7235 52.0712 40.0001 51.375 40.0001Z" fill="url(#paint0_linear_487_5782)"/>
</g>
<defs>
<filter id="filter0_i_487_5782" x="12" y="19.0176" width="54.25" height="43.1862" filterUnits="userSpaceOnUse" color-interpolation-filters="sRGB">
<feFlood flood-opacity="0" result="BackgroundImageFix"/>
<feBlend mode="normal" in="SourceGraphic" in2="BackgroundImageFix" result="shape"/>
<feColorMatrix in="SourceAlpha" type="matrix" values="0 0 0 0 0 0 0 0 0 0 0 0 0 0 0 0 0 0 127 0" result="hardAlpha"/>
<feOffset dy="1.2038"/>
<feGaussianBlur stdDeviation="0.769231"/>
<feComposite in2="hardAlpha" operator="arithmetic" k2="-1" k3="1"/>
<feColorMatrix type="matrix" values="0 0 0 0 0.937255 0 0 0 0 0.908314 0 0 0 0 0.901961 0 0 0 0.6 0"/>
<feBlend mode="normal" in2="shape" result="effect1_innerShadow_487_5782"/>
</filter>
<linearGradient id="paint0_linear_487_5782" x1="1" y1="-3" x2="54.6223" y2="67.3827" gradientUnits="userSpaceOnUse">
<stop stop-color="#FFC0AC"/>
<stop offset="1" stop-color="#0047FF"/>
</linearGradient>
</defs>
</svg>
