<svg width="48" height="48" viewBox="0 0 48 48" fill="none" xmlns="http://www.w3.org/2000/svg">
<g clip-path="url(#clip0_487_4610)">
<rect width="48" height="48" rx="24" fill="#B2B2B2"/>
<path d="M34.1257 23.9995C34.1257 24.2233 34.0368 24.4379 33.8785 24.5961C33.7203 24.7543 33.5057 24.8432 33.2819 24.8432H16.756L22.9101 30.9963C22.9885 31.0747 23.0507 31.1677 23.0931 31.2702C23.1355 31.3726 23.1574 31.4824 23.1574 31.5932C23.1574 31.7041 23.1355 31.8139 23.0931 31.9163C23.0507 32.0187 22.9885 32.1118 22.9101 32.1902C22.8317 32.2686 22.7387 32.3308 22.6362 32.3732C22.5338 32.4156 22.424 32.4375 22.3132 32.4375C22.2023 32.4375 22.0925 32.4156 21.9901 32.3732C21.8877 32.3308 21.7946 32.2686 21.7162 32.1902L14.1225 24.5964C14.044 24.5181 13.9818 24.425 13.9393 24.3226C13.8969 24.2202 13.875 24.1104 13.875 23.9995C13.875 23.8886 13.8969 23.7788 13.9393 23.6764C13.9818 23.574 14.044 23.4809 14.1225 23.4025L21.7162 15.8088C21.8745 15.6505 22.0893 15.5615 22.3132 15.5615C22.5371 15.5615 22.7518 15.6505 22.9101 15.8088C23.0684 15.9671 23.1574 16.1818 23.1574 16.4057C23.1574 16.6296 23.0684 16.8444 22.9101 17.0027L16.756 23.1557H33.2819C33.5057 23.1557 33.7203 23.2446 33.8785 23.4029C34.0368 23.5611 34.1257 23.7757 34.1257 23.9995Z" fill="white"/>
</g>
<defs>
<clipPath id="clip0_487_4610">
<rect width="48" height="48" rx="24" fill="white"/>
</clipPath>
</defs>
</svg>
