<svg width="48" height="48" viewBox="0 0 48 48" fill="none" xmlns="http://www.w3.org/2000/svg">
<g clip-path="url(#clip0_487_4607)">
<rect x="48" y="48" width="48" height="48" rx="24" transform="rotate(-180 48 48)" fill="#B2B2B2"/>
<path d="M13.8743 24.0005C13.8743 23.7767 13.9632 23.5621 14.1215 23.4039C14.2797 23.2456 14.4943 23.1568 14.7181 23.1568L31.244 23.1568L25.0899 17.0037C25.0115 16.9253 24.9493 16.8322 24.9069 16.7298C24.8645 16.6274 24.8426 16.5176 24.8426 16.4068C24.8426 16.2959 24.8645 16.1861 24.9069 16.0837C24.9493 15.9813 25.0115 15.8882 25.0899 15.8098C25.1683 15.7314 25.2613 15.6692 25.3638 15.6268C25.4662 15.5844 25.576 15.5625 25.6868 15.5625C25.7977 15.5625 25.9075 15.5844 26.0099 15.6268C26.1123 15.6692 26.2054 15.7314 26.2838 15.8098L33.8775 23.4036C33.956 23.4819 34.0182 23.575 34.0607 23.6774C34.1031 23.7798 34.125 23.8896 34.125 24.0005C34.125 24.1114 34.1031 24.2212 34.0607 24.3236C34.0182 24.426 33.956 24.5191 33.8775 24.5975L26.2838 32.1912C26.1255 32.3495 25.9107 32.4385 25.6868 32.4385C25.4629 32.4385 25.2482 32.3495 25.0899 32.1912C24.9316 32.0329 24.8426 31.8182 24.8426 31.5943C24.8426 31.3704 24.9316 31.1556 25.0899 30.9973L31.244 24.8443L14.7181 24.8443C14.4943 24.8443 14.2797 24.7554 14.1215 24.5971C13.9632 24.4389 13.8743 24.2243 13.8743 24.0005Z" fill="white"/>
</g>
<defs>
<clipPath id="clip0_487_4607">
<rect x="48" y="48" width="48" height="48" rx="24" transform="rotate(-180 48 48)" fill="white"/>
</clipPath>
</defs>
</svg>
